<?xml version="1.0" standalone="no"?>
<!DOCTYPE svg PUBLIC "-//W3C//DTD SVG 1.1//EN" "http://www.w3.org/Graphics/SVG/1.1/DTD/svg11.dtd" >
<svg xmlns="http://www.w3.org/2000/svg">
<metadata>Generated by IcoMoon</metadata>
<defs>
<font id="icomoon" horiz-adv-x="1024">
<font-face units-per-em="1024" ascent="960" descent="-64" />
<missing-glyph horiz-adv-x="1024" />
<glyph unicode="&#x20;" horiz-adv-x="512" d="" />
<glyph unicode="&#xe900;" glyph-name="sound-on" horiz-adv-x="1190" d="M844.108 867.748v-138.378c96.865-9.225 207.568-119.928 207.568-299.82s-110.703-285.982-207.568-299.82v-138.378c193.73 9.225 345.946 202.955 345.946 438.198s-152.216 428.973-345.946 438.198zM959.423 424.937c0 138.378-101.477 249.081-230.631 258.306v-138.378c46.126-4.613 92.252-50.739 92.252-115.315s-46.126-110.703-92.252-115.315v-138.378c129.153 0 230.631 115.315 230.631 249.081zM0 720.144v-571.964h313.658l345.946-216.793v1028.613l-345.946-239.856h-313.658zM553.514 761.658v-641.153l-212.18 133.766h-235.243v364.396h239.856l207.568 142.991z" />
<glyph unicode="&#xe901;" glyph-name="zoom" d="M409.6 960c-226.133 0-409.6-183.467-409.6-409.6s183.467-409.6 409.6-409.6c98.133 0 192 34.133 260.267 93.867l281.6-281.6c12.8-12.8 38.4-12.8 51.2 0s12.8 38.4 0 51.2l-281.6 281.6c59.733 72.533 93.867 162.133 93.867 260.267 4.267 230.4-179.2 413.867-405.333 413.867zM72.533 550.4c0 183.467 149.333 332.8 332.8 332.8s332.8-149.333 332.8-332.8c0-183.467-149.333-332.8-332.8-332.8s-332.8 149.333-332.8 332.8zM409.6 401.067c-17.067 0-34.133 12.8-34.133 34.133v85.333h-85.333c-17.067 0-34.133 12.8-34.133 34.133s12.8 34.133 34.133 34.133h85.333v85.333c0 17.067 12.8 34.133 34.133 34.133s34.133-12.8 34.133-34.133v-85.333h85.333c17.067 0 34.133-12.8 34.133-34.133s-12.8-34.133-34.133-34.133h-85.333v-85.333c-4.267-17.067-17.067-34.133-34.133-34.133z" />
<glyph unicode="&#xe902;" glyph-name="twitter" horiz-adv-x="1319" d="M115.133 959.999l422.407-564.797-425.073-459.202h95.667l372.151 402.038 300.685-402.038h325.562l-446.172 596.564 395.652 427.436h-95.666l-342.731-370.271-276.922 370.271h-325.559zM255.818 889.531h149.562l660.44-883.053h-149.559l-660.444 883.053z" />
<glyph unicode="&#xe903;" glyph-name="triangle" horiz-adv-x="906" d="M866.462 448l-866.462-500.185v1000.369l866.462-500.185z" />
<glyph unicode="&#xe904;" glyph-name="search" d="M1011.2 25.6l-268.8 268.8c57.6 70.4 89.6 160 89.6 249.6-6.4 230.4-192 416-422.4 416s-409.6-185.6-409.6-409.6 185.6-409.6 409.6-409.6c89.6 0 179.2 32 249.6 89.6l268.8-268.8c12.8-12.8 25.6-12.8 38.4-12.8s25.6 6.4 38.4 12.8c12.8 12.8 12.8 25.6 12.8 38.4 6.4 6.4 0 19.2-6.4 25.6zM409.6 243.2c-172.8 0-307.2 140.8-307.2 307.2s140.8 307.2 307.2 307.2c172.8 0 307.2-140.8 307.2-307.2 0-172.8-134.4-307.2-307.2-307.2z" />
<glyph unicode="&#xe905;" glyph-name="rectangle" d="M0 740.571c0 124.343 95.086 219.429 219.429 219.429h804.571v-804.571c0-124.343-95.086-219.429-219.429-219.429h-585.143c-124.343 0-219.429 95.086-219.429 219.429v585.143z" />
<glyph unicode="&#xe906;" glyph-name="quote" horiz-adv-x="1614" d="M390.528 719.326c-4.541 0-6.812 0-11.353 0 24.976 145.313 145.313 240.674 145.313 240.674-136.231-31.787-258.838-106.714-351.929-211.157s-152.124-233.863-170.288-372.364c0-15.894-2.271-31.787-2.271-47.681 0-52.222 9.082-102.173 29.517-149.854s47.681-90.82 84.009-127.149c36.328-36.328 79.468-65.845 127.149-84.009 47.681-20.435 97.632-29.517 149.854-29.517 102.173 2.271 199.805 45.41 270.191 118.067s111.255 172.559 111.255 274.732c0 102.173-40.869 199.805-111.255 274.732-70.386 70.386-168.018 111.255-270.191 113.525zM1503.078 603.53c-70.386 72.656-168.018 115.796-270.191 118.067-4.541 0-6.812 0-11.353 0 22.705 143.042 145.313 238.404 145.313 238.404-136.231-31.787-258.838-106.714-351.929-211.157s-152.124-233.863-170.288-372.364c-2.271-15.894-2.271-31.787-2.271-47.681 0-52.222 9.082-102.173 29.517-149.854s47.681-90.82 84.009-127.149c36.328-36.328 79.468-65.845 127.149-84.009 47.681-20.435 97.632-29.517 149.854-29.517 102.173 2.271 199.805 45.41 270.191 118.067s111.255 172.559 111.255 274.732c0 99.902-38.599 197.534-111.255 272.461z" />
<glyph unicode="&#xe907;" glyph-name="podcast" horiz-adv-x="913" d="M456.482 404.819c55.518 0 104.867 43.181 104.867 104.867s-55.518 104.867-111.036 104.867c-55.518 0-104.867-43.181-104.867-104.867s55.518-104.867 111.036-104.867zM450.313 330.795c-74.024 0-123.373-67.855-111.036-141.88l30.843-197.398c6.169-30.843 37.012-55.518 74.024-55.518s67.855 18.506 74.024 55.518l43.181 197.398c18.506 74.024-37.012 141.88-111.036 141.88zM456.482 960c-252.916 0-456.482-203.566-456.482-456.482 0-148.048 74.024-283.759 191.229-370.12 0 37.012 12.337 74.024 24.675 104.867-74.024 67.855-117.205 160.386-117.205 265.253 0 197.398 160.386 357.783 357.783 357.783s351.614-160.386 357.783-357.783c0-98.699-37.012-191.229-104.867-252.916 12.337-30.843 24.675-67.855 30.843-104.867 104.867 80.193 172.723 209.735 172.723 357.783 0 252.916-203.566 456.482-456.482 456.482zM456.482 799.614c-160.386 0-296.096-135.711-296.096-296.096 0-80.193 30.843-154.217 86.361-203.566 18.506 30.843 37.012 55.518 61.687 74.024-30.843 37.012-49.349 80.193-49.349 129.542 0 104.867 86.361 191.229 191.229 191.229s191.229-86.361 191.229-191.229c0-43.181-18.506-86.361-43.181-117.205 30.843-24.675 55.518-49.349 74.024-74.024 43.181 49.349 74.024 117.205 74.024 197.398 0 160.386-129.542 289.928-289.928 289.928z" />
<glyph unicode="&#xe908;" glyph-name="play" horiz-adv-x="732" d="M690.605 543.256c59.535-47.628 59.535-136.93 0-184.558l-494.14-392.93c-77.395-59.535-190.512-5.953-190.512 95.256l-5.953 779.907c0 101.209 113.116 154.791 190.512 95.256l500.093-392.93z" />
<glyph unicode="&#xe909;" glyph-name="monitor" horiz-adv-x="1170" d="M107.789 960h958.556c57.744 0 107.789-50.045 107.789-115.489v-681.383c0-61.594-46.195-115.489-103.94-115.489h-265.624v-115.489h-431.158v115.489h-265.624c-57.744 0-107.789 50.045-107.789 115.489v681.383c0 65.444 46.195 115.489 107.789 115.489zM107.789 163.128h958.556v681.383h-958.556v-681.383z" />
<glyph unicode="&#xe90a;" glyph-name="menu" horiz-adv-x="1408" d="M1350.4 512h-1292.8c-32 0-57.6-25.6-57.6-64s25.6-64 57.6-64h1292.8c32 0 57.6 25.6 57.6 64s-25.6 64-57.6 64zM1350.4 960h-1292.8c-32 0-57.6-32-57.6-64 0-38.4 25.6-64 57.6-64h1292.8c32 0 57.6 32 57.6 64s-25.6 64-57.6 64zM1350.4 70.4h-1292.8c-32 0-57.6-32-57.6-64s25.6-64 57.6-64h1292.8c32 0 57.6 32 57.6 64s-25.6 64-57.6 64z" />
<glyph unicode="&#xe90b;" glyph-name="linkedin" d="M228.894 604.612h-210.824v-668.612h210.824v668.612zM246.965 839.529c0 18.071 0 30.118-6.024 48.188-12.047 12.047-18.071 24.094-30.118 36.141s-24.094 18.071-36.141 24.094-36.141 12.047-48.188 12.047h-6.024c-30.118 0-60.235-12.047-84.329-36.141s-36.141-54.212-36.141-84.329c0-30.118 12.047-60.235 36.141-84.329s54.212-36.141 84.329-36.141c18.071 0 30.118 0 48.188 6.024s30.118 12.047 42.165 24.094c12.047 12.047 18.071 24.094 30.118 36.141 0 18.071 6.024 36.141 6.024 54.212v0zM1024 345.6c0 204.8-126.494 283.106-252.988 283.106-42.165 0-84.329-6.024-120.471-24.094s-66.259-48.188-90.353-84.329h-12.047v84.329h-192.753v-668.612h210.824v355.388c-6.024 36.141 6.024 72.282 30.118 102.4s60.235 48.188 96.376 48.188h6.024c66.259 0 114.447-42.165 114.447-150.588v-361.412h210.824v415.624z" />
<glyph unicode="&#xe90c;" glyph-name="jump" horiz-adv-x="783" d="M391.529 14.306l-265.035 349.365h-126.494l331.294-427.671h120.471l331.294 427.671h-126.494zM391.529 881.694l265.035-349.365h126.494l-331.294 427.671h-120.471l-331.294-427.671h126.494z" />
<glyph unicode="&#xe90d;" glyph-name="headphone" d="M1024 448c0 284.444-227.556 512-512 512s-512-227.556-512-512c0-62.578 11.378-119.467 28.444-176.356-17.067-34.133-28.444-73.956-28.444-113.778 0-113.778 85.333-204.8 193.422-221.867v443.733c-34.133-5.689-62.578-17.067-85.333-34.133-5.689 28.444-5.689 56.889-5.689 85.333-5.689 233.244 182.044 415.289 409.6 415.289s415.289-187.733 415.289-415.289c0-28.444 0-56.889-5.689-85.333-28.444 17.067-56.889 28.444-85.333 34.133v-443.733c108.089 17.067 193.422 108.089 193.422 221.867 0 39.822-11.378 79.644-28.444 113.778 11.378 56.889 22.756 113.778 22.756 176.356z" />
<glyph unicode="&#xe90e;" glyph-name="future" horiz-adv-x="1961" d="M212.677 960h1362.708l-70.892-189.046h456.862l-322.954-834.954h-1016.123l70.892 189.046h-693.169l512 417.477-299.323 417.477z" />
<glyph unicode="&#xe90f;" glyph-name="forward" horiz-adv-x="1079" d="M1060.571 685.714l-280.381 256c-24.381 18.286-60.952 18.286-85.333 0-12.19-12.19-18.286-24.381-18.286-42.667 0-12.19 6.095-30.476 18.286-42.667l201.143-188.952 6.095-6.095c0 0 6.095-6.095 6.095-6.095 6.095-6.095 6.095-12.19 6.095-18.286s6.095 0 0-6.095c0-6.095-6.095-6.095-6.095-6.095l-207.238-188.952c-12.19-12.19-18.286-24.381-18.286-42.667 0-12.19 6.095-30.476 18.286-42.667s24.381-18.286 42.667-18.286c12.19 0 30.476 6.095 42.667 18.286l280.381 256c12.19 12.19 18.286 24.381 18.286 42.667-6.095 12.19-12.19 24.381-24.381 36.571zM182.857 326.095c0 115.81 91.429 207.238 207.238 207.238h158.476l-121.905-115.81c-18.286-18.286-18.286-42.667 0-54.857 18.286-18.286 42.667-18.286 60.952 0l280.381 256c18.286 18.286 18.286 42.667 0 54.857l-280.381 262.095c-18.286 18.286-42.667 18.286-60.952 0s-18.286-42.667 0-60.952l170.667-158.476h-207.238c-213.333 0-390.095-176.762-390.095-390.095s176.762-390.095 390.095-390.095h249.905v182.857h-249.905c-115.81 0-207.238 91.429-207.238 207.238z" />
<glyph unicode="&#xe910;" glyph-name="clubhouse" horiz-adv-x="1055" d="M74.024 478.843c0 0-49.349-104.867 12.337-203.566s154.217-111.036 154.217-111.036c-178.892 123.373-166.554 314.602-166.554 314.602zM0 232.096c0 0 0-80.193 86.361-123.373 92.53-49.349 160.386-12.337 160.386-12.337-154.217 6.169-246.747 135.711-246.747 135.711zM888.289 707.084c0 0 49.349 55.518 18.506 141.88-43.181 86.361-111.036 104.867-111.036 104.867 104.867-98.699 92.53-246.747 92.53-246.747zM801.928 626.892c0 0 43.181 86.361-6.169 191.229-43.181 104.867-160.386 123.373-160.386 123.373s172.723-92.53 166.554-314.602zM129.542 694.747c0 0 6.169 0 0 0 6.169 6.169 6.169 6.169 0 0 6.169 6.169 6.169 6.169 0 0zM197.398 707.084c-18.506 6.169-43.181 0-55.518-6.169 0 0 0 0 0 0s0 0 0 0c12.337 6.169 37.012 12.337 55.518 6.169zM376.289 953.831c-12.337 0-18.506 0-30.843-6.169 0 0 0 0 0 0s0 0 0 0c6.169 6.169 18.506 6.169 30.843 6.169zM536.675 960c-12.337 0-18.506 0-30.843-6.169 0 0 0 0 0 0s0 0 0 0c12.337 6.169 18.506 6.169 30.843 6.169zM487.325 941.494c0 0 6.169 0 0 0 6.169 6.169 12.337 6.169 18.506 12.337-6.169-6.169-12.337-6.169-18.506-12.337zM1024 756.434c-67.855 30.843-117.205-49.349-135.711-98.699-6.169-12.337-12.337-30.843-18.506-55.518-12.337-49.349-30.843-98.699-55.518-111.036 0-6.169-24.675-12.337-24.675-12.337v0c-24.675-12.337-98.699-55.518-135.711-117.205-49.349-80.193-43.181-141.88-12.337-215.904 0 0-80.193 111.036 6.169 234.41 49.349 74.024 111.036 92.53 141.88 98.699l-209.735 425.639c-12.337 37.012-55.518 49.349-86.361 37.012-24.675-18.506-37.012-49.349-30.843-74.024l178.892-370.12-37.012 24.675-185.060 376.289c-18.506 37.012-49.349 49.349-86.361 43.181-30.843-24.675-43.181-61.687-24.675-92.53l12.337-30.843c0 0 0 0 0 0s0-6.169 6.169-6.169l178.892-382.458-37.012 24.675-160.386 345.446c-18.506 30.843-49.349 43.181-80.193 30.843-37.012-18.506-49.349-55.518-30.843-92.53l24.675-49.349c0 0 0 0 0 0v0c6.169-6.169 6.169-12.337 12.337-18.506l148.048-308.434-43.181 30.843-129.542 271.422c-12.337 24.675-43.181 43.181-74.024 30.843-30.843-18.506-49.349-61.687-30.843-92.53l203.566-425.639c0 0 92.53-234.41 240.578-240.578 129.542-6.169 203.566 37.012 234.41 61.687 6.169 0 6.169 6.169 12.337 6.169 24.675 12.337 129.542 98.699 154.217 203.566 12.337 61.687 12.337 98.699 12.337 123.373 0 18.506 0 37.012 0 61.687 12.337 61.687 49.349 154.217 61.687 185.060 0 6.169 6.169 6.169 6.169 12.337 18.506 49.349 55.518 135.711-6.169 166.554zM222.072 830.458c0 0 0 0 0 0 6.169 6.169 6.169 6.169 12.337 6.169-6.169 0-6.169 0-12.337-6.169zM277.59 842.795c-12.337 6.169-30.843 0-43.181-6.169 0 0 0 0 0 0s0 0 0 0c12.337 6.169 30.843 12.337 43.181 6.169zM333.108 941.494c0 0 0 0 0 0 6.169 0 6.169 6.169 12.337 6.169-6.169-6.169-12.337-6.169-12.337-6.169z" />
<glyph unicode="&#xe911;" glyph-name="close" horiz-adv-x="973" d="M973.032 858.063l-101.937 101.937-389.213-407.747-384.579 407.747-97.303-101.937 389.213-407.747-389.213-412.38 97.303-101.937 389.213 407.747 389.213-407.747 97.303 101.937-389.213 407.747 389.213 412.38z" />
<glyph unicode="&#xe912;" glyph-name="close-a" d="M934.698-64c-23.814 0-47.628 5.953-65.488 23.814l-357.209 357.209-357.209-357.209c-35.721-35.721-89.302-35.721-125.023 0s-35.721 89.302 0 125.023l357.209 357.209-357.209 357.209c-35.721 41.674-35.721 101.209-5.953 136.93s89.302 35.721 125.023 0l357.209-357.209 357.209 357.209c35.721 35.721 89.302 35.721 125.023 0s35.721-89.302 0-125.023l-357.209-357.209 357.209-357.209c35.721-35.721 35.721-89.302 0-125.023-11.907-23.814-35.721-35.721-53.581-35.721z" />
<glyph unicode="&#xe913;" glyph-name="backwards" horiz-adv-x="1079" d="M176.762 618.667v0 0 0c-6.095 6.095-12.19 6.095-12.19 12.19-6.095 6.095-12.19 12.19-12.19 18.286s6.095 12.19 6.095 18.286c0 6.095 6.095 6.095 6.095 6.095l207.238 188.952c12.19 12.19 18.286 24.381 18.286 42.667 0 12.19-6.095 30.476-18.286 42.667-24.381 18.286-60.952 18.286-85.333 0l-268.19-262.095c-12.19-12.19-18.286-24.381-18.286-36.571s6.095-30.476 18.286-42.667l280.381-256c12.19-12.19 24.381-18.286 42.667-18.286s24.381 6.095 36.571 18.286 18.286 24.381 18.286 42.667c0 12.19-6.095 30.476-18.286 42.667l-201.143 182.857zM688.762 716.19h-207.238l170.667 158.476c18.286 18.286 18.286 42.667 0 54.857-18.286 18.286-42.667 18.286-60.952 0l-280.381-256c-18.286-18.286-18.286-42.667 0-54.857l280.381-256c18.286-18.286 42.667-18.286 60.952 0s18.286 42.667 0 54.857l-121.905 115.81h158.476c115.81 0 207.238-91.429 207.238-207.238s-91.429-207.238-207.238-207.238h-249.905v-182.857h249.905c213.333 0 390.095 176.762 390.095 390.095s-170.667 390.095-390.095 390.095z" />
<glyph unicode="&#xe914;" glyph-name="arrow-t-a" horiz-adv-x="1875" d="M937.465 772.507l634.592-836.507h302.873l-793.239 1024h-288.451l-793.239-1024h302.873z" />
<glyph unicode="&#xe915;" glyph-name="arrow-right" horiz-adv-x="1344" d="M905.578 946.068c-20.898 20.898-48.762 20.898-69.66 0s-20.898-55.728 0-69.66l341.333-369.197h-1128.49c-27.864-6.966-48.762-27.864-48.762-55.728s20.898-48.762 48.762-48.762h1128.49l-341.333-376.163c-20.898-20.898-20.898-55.728 0-76.626s48.762-20.898 69.66 0l417.959 459.755c20.898 20.898 20.898 55.728 0 69.66l-417.959 466.721z" />
<glyph unicode="&#xe916;" glyph-name="arrow-right-1" horiz-adv-x="1470" d="M989.676 942.838c-22.883 22.883-51.486 22.883-74.369 0-22.883-17.162-22.883-51.486 0-74.369l377.564-366.123h-1241.385c-28.603 0-51.486-22.883-51.486-51.486s22.883-51.486 51.486-51.486h1241.385l-377.564-371.844c-22.883-22.883-22.883-51.486 0-74.369s51.486-22.883 74.369 0l463.374 457.654c22.883 17.162 22.883 51.486 0 74.369l-463.374 457.654z" />
<glyph unicode="&#xe917;" glyph-name="arrow-down" horiz-adv-x="1701" d="M115.757 933.287c-26.713 35.617-71.235 35.617-97.948 0-26.713-26.713-26.713-80.139 0-106.852l783.583-863.722c26.713-26.713 71.235-26.713 97.948 0l783.583 872.626c26.713 26.713 26.713 80.139 0 106.852s-71.235 26.713-97.948 0l-739.061-801.391-730.157 792.487z" />
<glyph unicode="&#xe918;" glyph-name="arrow-b-a" horiz-adv-x="1875" d="M937.465 109.070l634.592 850.93h302.873l-793.239-1024h-288.451l-793.239 1024h302.873z" />
<glyph unicode="&#xe919;" glyph-name="whats-app" d="M876.8 812.8c-96 96-230.4 147.2-364.8 147.2-281.6 0-512-230.4-512-512 0-89.6 25.6-179.2 70.4-256l-70.4-256 268.8 64c76.8-38.4 160-64 243.2-64 281.6 0 512 230.4 512 512 0 134.4-51.2 262.4-147.2 364.8zM761.6 268.8c-12.8-32-64-57.6-83.2-64-25.6 0-44.8-12.8-153.6 32-128 51.2-211.2 185.6-217.6 192-6.4 12.8-51.2 70.4-51.2 134.4s32 96 44.8 108.8 25.6 12.8 32 12.8c6.4 0 19.2 0 25.6 0s19.2 0 25.6-19.2c12.8-25.6 38.4-89.6 38.4-96s6.4-12.8 0-25.6-6.4-12.8-6.4-19.2c-12.8-6.4-19.2-19.2-25.6-25.6 0-6.4-12.8-12.8 0-25.6 6.4-12.8 32-51.2 70.4-89.6 51.2-44.8 89.6-57.6 102.4-64 12.8 0 19.2 0 25.6 6.4s32 38.4 38.4 51.2c12.8 12.8 19.2 12.8 32 6.4s76.8-38.4 89.6-38.4c12.8-12.8 19.2-12.8 19.2-19.2 6.4-6.4 6.4-32-6.4-57.6z" />
<glyph unicode="&#xe91a;" glyph-name="slack" d="M217.6 313.6c0-57.6-51.2-108.8-108.8-108.8s-108.8 51.2-108.8 108.8c0 57.6 51.2 108.8 108.8 108.8h108.8c0 0 0-108.8 0-108.8zM268.8 313.6c0 57.6 51.2 108.8 108.8 108.8s108.8-51.2 108.8-108.8v-268.8c0-57.6-51.2-108.8-108.8-108.8s-108.8 51.2-108.8 108.8c0 0 0 268.8 0 268.8zM377.6 742.4c-57.6 0-108.8 51.2-108.8 108.8s51.2 108.8 108.8 108.8c57.6 0 108.8-51.2 108.8-108.8v-108.8h-108.8zM377.6 691.2c57.6 0 108.8-51.2 108.8-108.8s-51.2-108.8-108.8-108.8h-268.8c-57.6 0-108.8 51.2-108.8 108.8s51.2 108.8 108.8 108.8h268.8zM806.4 582.4c0 57.6 51.2 108.8 108.8 108.8s108.8-51.2 108.8-108.8c0-57.6-51.2-108.8-108.8-108.8h-108.8v108.8zM755.2 582.4c0-57.6-51.2-108.8-108.8-108.8s-108.8 51.2-108.8 108.8v268.8c0 57.6 51.2 108.8 108.8 108.8s108.8-51.2 108.8-108.8v-268.8zM646.4 153.6c57.6 0 108.8-51.2 108.8-108.8s-51.2-108.8-108.8-108.8c-57.6 0-108.8 51.2-108.8 108.8v108.8c0 0 108.8 0 108.8 0zM646.4 204.8c-57.6 0-108.8 51.2-108.8 108.8s51.2 108.8 108.8 108.8h268.8c57.6 0 108.8-51.2 108.8-108.8s-51.2-108.8-108.8-108.8c0 0-268.8 0-268.8 0z" />
<glyph unicode="&#xe91b;" glyph-name="reddit" d="M512 960c-281.6 0-512-230.4-512-512s230.4-512 512-512 512 230.4 512 512-230.4 512-512 512zM723.2 755.2c32 0 51.2-25.6 51.2-51.2 0-32-25.6-51.2-51.2-51.2s-51.2 19.2-51.2 51.2l-108.8 19.2-38.4-160c76.8 0 147.2-25.6 198.4-64 12.8 12.8 32 19.2 51.2 19.2 38.4 0 76.8-32 76.8-76.8 0-32-19.2-57.6-44.8-70.4 0-6.4 0-12.8 0-19.2 0-115.2-134.4-204.8-300.8-204.8s-300.8 96-300.8 204.8c0 6.4 0 12.8 0 25.6-12.8 12.8-32 38.4-32 70.4 0 38.4 32 76.8 76.8 76.8 19.2 0 38.4-6.4 51.2-19.2 51.2 38.4 121.6 64 204.8 64l38.4 179.2c0 6.4 0 6.4 6.4 6.4 0 0 6.4 0 12.8 0l121.6-25.6c0 19.2 19.2 25.6 38.4 25.6zM396.8 448c-32 0-57.6-25.6-57.6-51.2s25.6-51.2 51.2-51.2 57.6 19.2 57.6 51.2-25.6 51.2-51.2 51.2zM627.2 448c-25.6 0-51.2-25.6-51.2-51.2s25.6-51.2 51.2-51.2c32 0 51.2 25.6 51.2 51.2s-19.2 51.2-51.2 51.2zM396.8 275.2c-6.4 0-6.4 0-12.8-6.4s-6.4-12.8 0-19.2c38.4-38.4 108.8-38.4 128-38.4s89.6 0 128 38.4c6.4 6.4 6.4 12.8 0 19.2s-12.8 6.4-19.2 0c-25.6-25.6-70.4-32-108.8-32s-83.2 6.4-108.8 32c0 6.4-6.4 6.4-6.4 6.4z" />
<glyph unicode="&#xe91c;" glyph-name="loom" d="M1024 503.855h-311.855l269.964 158.255-55.855 93.091-269.964-158.255 158.255 269.964-93.091 55.855-158.255-269.964v307.2h-107.055v-311.855l-153.6 269.964-93.091-51.2 158.255-269.964-274.618 153.6-55.855-93.091 269.964-158.255h-307.2v-107.055h311.855l-269.964-158.255 55.855-93.091 269.964 158.255-158.255-269.964 93.091-55.855 158.255 269.964v-307.2h107.055v316.509l158.255-274.618 88.436 51.2-162.909 274.618 274.618-158.255 55.855 93.091-269.964 158.255h311.855v107.055zM512 303.709c-18.618 0-37.236 4.655-55.855 9.309-18.618 9.309-32.582 18.618-46.545 32.582s-23.273 27.927-32.582 46.545c-9.309 18.618-9.309 37.236-9.309 55.855s4.655 37.236 9.309 55.855c9.309 18.618 18.618 32.582 32.582 46.545s27.927 23.273 46.545 32.582c18.618 9.309 37.236 9.309 55.855 9.309 37.236 0 74.473-13.964 102.4-41.891s41.891-65.164 41.891-102.4-13.964-74.473-41.891-102.4c-27.927-27.927-65.164-41.891-102.4-41.891z" />
<glyph unicode="&#xe91d;" glyph-name="linkedin-a" d="M0 960v-1024h1024v1024h-1024zM339.2 147.2h-128v473.6h128v-473.6zM275.2 672c-38.4 0-70.4 32-70.4 76.8 0 38.4 32 76.8 76.8 76.8 38.4 0 76.8-32 76.8-76.8-6.4-44.8-38.4-76.8-83.2-76.8zM851.2 147.2h-128v243.2c0 140.8-172.8 134.4-172.8 0v-236.8h-128v467.2h128v-76.8c57.6 108.8 300.8 121.6 300.8-108.8v-288z" />
<glyph unicode="&#xe91e;" glyph-name="link" d="M262.4 588.8c19.2 19.2 38.4 32 64 44.8 121.6 70.4 281.6 32 358.4-89.6l-96-96c-25.6 64-96 102.4-160 83.2-25.6-6.4-51.2-19.2-70.4-38.4l-185.6-185.6c-57.6-57.6-57.6-147.2 0-204.8s147.2-57.6 204.8 0l57.6 57.6c51.2-19.2 108.8-25.6 160-25.6l-128-128c-108.8-108.8-281.6-108.8-390.4 0s-108.8 281.6 0 390.4c0 6.4 185.6 192 185.6 192zM556.8 876.8l-128-128c57.6 6.4 108.8-6.4 160-25.6l57.6 57.6c57.6 57.6 147.2 57.6 204.8 0s57.6-147.2 0-204.8l-185.6-185.6c-57.6-57.6-147.2-57.6-204.8 0-6.4 25.6-19.2 38.4-25.6 57.6l-96-96c12.8-12.8 19.2-25.6 32-44.8 32-32 76.8-57.6 128-70.4 64-12.8 134.4-6.4 198.4 25.6 19.2 12.8 44.8 25.6 64 44.8l185.6 185.6c108.8 108.8 108.8 281.6 0 390.4-108.8 102.4-281.6 102.4-390.4-6.4z" />
<glyph unicode="&#xe91f;" glyph-name="hacker-news" d="M0 960v-1024h1024v1024h-1024zM921.6 38.4h-819.2v819.2h819.2v-819.2zM870.4 806.4h-716.8v-716.8h716.8v716.8zM563.2 448v-256h-102.4v256l-204.8 256h128l128-153.6 128 153.6h128l-204.8-256z" />
<glyph unicode="&#xe920;" glyph-name="flipboard" d="M0 960v-1024h1024v1024h-1024zM819.2 550.4h-204.8v-204.8h-204.8v-204.8h-204.8v614.4h614.4v-204.8z" />
<glyph unicode="&#xe921;" glyph-name="facebook" d="M966.4 960h-908.8c-32 0-57.6-25.6-57.6-57.6v-908.8c0-32 25.6-57.6 57.6-57.6h492.8v396.8h-134.4v153.6h134.4v115.2c0 134.4 83.2 204.8 198.4 204.8 57.6 0 102.4-6.4 121.6-6.4v-140.8h-83.2c-64 0-76.8-32-76.8-76.8v-96h153.6l-19.2-153.6h-140.8v-396.8h262.4c32 0 57.6 25.6 57.6 57.6v908.8c0 32-25.6 57.6-57.6 57.6z" />
<glyph unicode="&#xe922;" glyph-name="envelope" horiz-adv-x="1349" d="M0 960v-1024h1349.079v1024h-1349.079zM1121.524 805.587l-446.984-365.714-446.984 365.714h893.968zM154.413 659.302l235.683-186.921-235.683-219.429v406.349zM227.556 90.413l284.444 284.444 162.54-138.159 162.54 138.159 292.571-284.444h-902.095zM1194.667 261.079l-235.683 211.302 235.683 186.921v-398.222z" />
<glyph unicode="&#xe923;" glyph-name="download" horiz-adv-x="1373" d="M1327.196 21.81h-560.626l326.078 303.196c17.162 17.162 17.162 40.045 0 57.207s-45.765 17.162-57.207 0l-303.196-280.313v818.056c0 22.883-17.162 40.045-40.045 40.045s-40.045-17.162-40.045-40.045v-823.777l-308.916 280.313c-17.162 17.162-45.765 17.162-62.927 0s-17.162-40.045 0-57.207l326.078-303.196h-572.067c-22.883 0-45.765-17.162-45.765-45.765s17.162-45.765 45.765-45.765h1287.151c22.883 0 45.765 17.162 45.765 45.765s-11.441 51.486-40.045 51.486z" />
<glyph unicode="&#xe924;" glyph-name="discord" horiz-adv-x="910" d="M358.4 527.644c-28.444 0-51.2-28.444-51.2-56.889s22.756-56.889 51.2-56.889 51.2 28.444 51.2 56.889-22.756 56.889-51.2 56.889zM802.133 960h-694.044c-62.578 0-108.089-51.2-108.089-108.089v-688.356c0-62.578 45.511-108.089 108.089-108.089h591.644l-28.444 96.711 68.267-56.889 62.578-56.889 113.778-96.711v910.222c-11.378 56.889-56.889 108.089-113.778 108.089zM597.333 288.711c0 0-17.067 22.756-34.133 45.511 68.267 17.067 91.022 56.889 91.022 56.889-22.756-17.067-39.822-22.756-56.889-34.133-22.756-11.378-51.2-17.067-73.956-22.756-51.2-11.378-96.711-5.689-136.533 0-28.444 5.689-56.889 17.067-73.956 22.756-11.378 5.689-22.756 11.378-39.822 17.067 0 0 0 0 0 0v0c0 0 0 0 0 0v0c-17.067 11.378-22.756 17.067-22.756 17.067s22.756-39.822 91.022-62.578c-17.067-22.756-34.133-45.511-34.133-45.511-113.778 5.689-159.289 79.644-159.289 79.644 5.689 164.978 79.644 301.511 79.644 301.511 73.956 56.889 147.911 56.889 147.911 56.889l5.689-5.689c-96.711-28.444-136.533-68.267-136.533-68.267s11.378 5.689 28.444 17.067c56.889 22.756 96.711 34.133 119.467 34.133h5.689c28.444 0 68.267 5.689 102.4 0 51.2-5.689 102.4-22.756 159.289-51.2 0 0-39.822 39.822-130.844 68.267l5.689 5.689c11.378 0 73.956 0 142.222-51.2 0 0 73.956-136.533 73.956-301.511 11.378 0-34.133-73.956-153.6-79.644zM551.822 527.644c-28.444 0-51.2-28.444-51.2-56.889s22.756-56.889 51.2-56.889 51.2 28.444 51.2 56.889-22.756 56.889-51.2 56.889z" />
<glyph unicode="&#xe925;" glyph-name="stitcher" d="M870.4 960h-716.8c-83.2 0-153.6-70.4-153.6-153.6v-716.8c0-83.2 70.4-153.6 153.6-153.6h716.8c83.2 0 153.6 70.4 153.6 153.6v716.8c0 83.2-70.4 153.6-153.6 153.6zM249.6 294.4h-134.4v256h140.8v-256zM416 313.6h-140.8v281.6h140.8v-281.6zM582.4 281.6h-140.8v288h140.8v-288zM748.8 313.6h-140.8v300.8h140.8v-300.8zM908.8 332.8h-140.8v230.4h140.8v-230.4z" />
<glyph unicode="&#xe926;" glyph-name="spotify" d="M512 960c-281.6 0-512-230.4-512-512s230.4-512 512-512c281.6 0 512 230.4 512 512s-230.4 512-512 512zM249.6 262.4c57.6 19.2 121.6 25.6 179.2 25.6 102.4 0 204.8-25.6 294.4-76.8 6.4 0 12.8-12.8 12.8-25.6s0-25.6 0-32c-6.4-6.4-12.8-12.8-25.6-12.8-6.4 0-6.4 0-12.8 6.4-83.2 44.8-172.8 70.4-268.8 70.4-57.6 0-115.2-6.4-166.4-25.6 0 0-6.4 0-6.4 0-12.8 0-19.2 6.4-25.6 19.2 0 12.8 6.4 44.8 19.2 51.2zM230.4 448c64 19.2 134.4 25.6 204.8 25.6 121.6 0 243.2-32 352-89.6 6.4-6.4 12.8-12.8 12.8-19.2s0-19.2 0-25.6c-12.8-19.2-19.2-32-25.6-32s-12.8 0-12.8 6.4c-102.4 51.2-211.2 76.8-326.4 76.8-64 0-128-6.4-185.6-25.6 0 0-6.4 0-6.4 0-19.2 6.4-32 19.2-38.4 32 0 12.8 6.4 44.8 25.6 51.2zM224 569.6c0 0-6.4 0-6.4 0-19.2 0-32 12.8-38.4 25.6-6.4 25.6 6.4 51.2 25.6 57.6 76.8 19.2 153.6 25.6 230.4 25.6 147.2 0 288-32 416-96 6.4-6.4 12.8-12.8 19.2-19.2s0-19.2 0-32c-6.4-12.8-19.2-25.6-32-25.6-6.4 0-12.8 0-19.2 6.4-121.6 57.6-249.6 89.6-384 89.6-70.4-6.4-140.8-12.8-211.2-32z" />
<glyph unicode="&#xe927;" glyph-name="radio-public" d="M780.8 960h-537.6c-147.2 0-243.2-96-243.2-243.2v-537.6c0-147.2 96-243.2 243.2-243.2h537.6c147.2 0 243.2 96 243.2 243.2v537.6c0 147.2-96 243.2-243.2 243.2zM825.6 121.6c-115.2 57.6-236.8-57.6-352 0 0 0 0 0 0 0v0c0 0 0 0 0 0 0 32 0 64 0 102.4-89.6-6.4-172.8-57.6-262.4-12.8v563.2c121.6-57.6 236.8 57.6 358.4 0v-96c83.2 6.4 172.8 57.6 256 12.8v-569.6zM633.6 217.6v147.2c12.8 0 19.2 6.4 32 6.4 44.8 12.8 64 38.4 64 83.2v76.8c0 44.8-12.8 76.8-64 57.6-38.4 0-70.4-12.8-96-12.8v-371.2c19.2 6.4 38.4 6.4 64 12.8zM633.6 531.2c6.4 0 6.4 0 12.8 0 12.8 6.4 19.2-6.4 19.2-19.2 0-19.2 0-38.4 0-64 0-12.8 0-19.2-19.2-25.6-6.4 0-6.4 0-12.8 0v108.8zM467.2 352v128c0 25.6-19.2 38.4-25.6 38.4 12.8 6.4 25.6 19.2 25.6 51.2 0 19.2 0 44.8 0 64 0 38.4-19.2 57.6-57.6 51.2-32-12.8-64-19.2-102.4-25.6v-371.2c19.2 0 44.8 6.4 64 12.8v160c6.4 0 6.4 0 12.8 6.4 12.8 0 19.2 0 19.2-19.2v-108.8c0-19.2 0-25.6 6.4-25.6 19.2 0 38.4 6.4 64 6.4 0 6.4 0 12.8 0 25.6-6.4 0-6.4 0-6.4 6.4zM403.2 550.4c0-19.2-6.4-25.6-19.2-25.6-6.4 0-6.4 0-12.8 0v89.6c6.4 0 12.8 0 12.8 6.4 12.8 0 19.2 0 19.2-19.2v-51.2zM473.6 345.6c0-6.4 0-12.8 0-25.6 0 0 0 0 0 0v25.6c0 0 0 0 0 0zM473.6 569.6v57.6c0 0 0 0 0 0 0-19.2 0-38.4 0-57.6 0 0 0 0 0 0zM473.6 326.4c0 6.4-6.4 12.8-6.4 19.2l6.4-19.2c0-6.4 0-6.4 0 0v0z" />
<glyph unicode="&#xe928;" glyph-name="pocket-casts" d="M512 960c-281.6 0-512-230.4-512-512s230.4-512 512-512c281.6 0 512 230.4 512 512s-230.4 512-512 512zM672 441.6c0 83.2-70.4 153.6-153.6 153.6s-153.6-70.4-153.6-153.6c0-83.2 70.4-153.6 153.6-153.6v-89.6c-134.4 0-243.2 108.8-243.2 243.2s108.8 243.2 243.2 243.2c134.4 0 243.2-108.8 243.2-243.2h-89.6zM819.2 441.6c0 166.4-134.4 300.8-300.8 300.8s-300.8-134.4-300.8-300.8c0-166.4 134.4-300.8 300.8-300.8v-102.4c-224 0-403.2 179.2-403.2 403.2s179.2 403.2 403.2 403.2c224 0 403.2-179.2 403.2-403.2h-102.4z" />
<glyph unicode="&#xe929;" glyph-name="overcast" d="M249.6 185.6c-64 64-108.8 160-108.8 262.4s38.4 192 108.8 262.4l32-32c-51.2-64-89.6-140.8-89.6-230.4s38.4-166.4 96-224l-38.4-38.4zM352 288c-38.4 44.8-64 96-64 160s25.6 115.2 64 160l32-32c-32-32-51.2-76.8-51.2-128s19.2-96 51.2-128l-32-32zM640 320c32 32 51.2 76.8 51.2 128s-19.2 96-51.2 128l32 32c38.4-38.4 64-96 64-160s-25.6-115.2-64-160l-32 32zM774.4 185.6l-32 32c51.2 64 89.6 140.8 89.6 230.4s-38.4 166.4-96 224l32 32c64-64 108.8-160 108.8-262.4 0-96-38.4-185.6-102.4-256zM512 915.2c-256 0-467.2-211.2-467.2-467.2 0-204.8 134.4-377.6 320-441.6l121.6 358.4c-38.4 12.8-64 44.8-64 83.2 0 51.2 38.4 89.6 89.6 89.6s89.6-38.4 89.6-89.6c0-38.4-25.6-70.4-57.6-83.2l121.6-358.4c185.6 64 320 236.8 320 441.6-6.4 256-217.6 467.2-473.6 467.2zM569.6-12.8c-19.2 12.8-38.4 32-57.6 51.2-19.2-19.2-38.4-38.4-57.6-51.2 19.2 0 38.4-6.4 57.6-6.4s38.4 0 57.6 6.4zM537.6 70.4c25.6-25.6 51.2-51.2 83.2-76.8 0 0 6.4 0 6.4 0l-51.2 128c-12.8-19.2-25.6-38.4-38.4-51.2zM512 102.4c12.8 19.2 32 44.8 44.8 64l-44.8 115.2-44.8-108.8c12.8-25.6 25.6-51.2 44.8-70.4zM403.2-6.4c25.6 19.2 51.2 44.8 76.8 70.4-12.8 12.8-25.6 32-38.4 44.8l-38.4-115.2c0 0 0 0 0 0zM512-64c-281.6 0-512 230.4-512 512s230.4 512 512 512c281.6 0 512-230.4 512-512s-230.4-512-512-512z" />
<glyph unicode="&#xe92a;" glyph-name="iheart-radio" horiz-adv-x="1388" d="M1006.644 960c-130.169 0-242.983-69.424-312.407-173.559-69.424 104.136-182.237 173.559-312.407 173.559-208.271 0-381.831-173.559-381.831-381.831 0-130.169 86.78-225.627 173.559-312.407l347.119-321.085c17.356-17.356 43.39-8.678 43.39 17.356v251.661c0 69.424 60.746 130.169 130.169 130.169s130.169-60.746 130.169-130.169v-251.661c0-26.034 26.034-34.712 43.39-17.356l347.119 321.085c86.78 86.78 173.559 182.237 173.559 312.407 0 208.271-164.881 381.831-381.831 381.831zM347.119 291.797c0-8.678-8.678-8.678-17.356-8.678s-8.678 0-17.356 8.678c-112.814 104.136-173.559 208.271-173.559 312.407v0c0 86.78 52.068 190.915 130.169 242.983 8.678 8.678 26.034 0 34.712-8.678s0-26.034-8.678-34.712c-52.068-43.39-95.458-130.169-95.458-199.593v0c0-86.78 52.068-182.237 156.203-269.017 0-17.356 8.678-34.712-8.678-43.39zM520.678 387.254c-8.678-8.678-17.356-17.356-26.034-17.356s-8.678 0-8.678 0c-78.102 52.068-130.169 138.847-130.169 216.949v0c0 78.102 43.39 147.525 112.814 190.915 8.678 8.678 26.034 0 34.712-8.678s0-26.034-8.678-34.712c-52.068-26.034-86.78-78.102-86.78-138.847s43.39-130.169 104.136-164.881c8.678-17.356 17.356-34.712 8.678-43.39zM694.237 456.678c-60.746 0-112.814 52.068-112.814 112.814s52.068 112.814 112.814 112.814c60.746 0 112.814-52.068 112.814-112.814s-52.068-112.814-112.814-112.814zM902.508 378.576c0 0-8.678 0-8.678 0-8.678 0-17.356 8.678-26.034 17.356s0 26.034 8.678 34.712c60.746 34.712 104.136 104.136 104.136 164.881s-34.712 112.814-86.78 138.847c-8.678 8.678-17.356 26.034-8.678 34.712s26.034 17.356 34.712 8.678c69.424-34.712 112.814-104.136 112.814-190.915v0c0-86.78-52.068-164.881-130.169-208.271zM1240.949 595.525c0-104.136-60.746-208.271-173.559-312.407-8.678-8.678-8.678-8.678-17.356-8.678s-17.356 0-17.356 8.678-8.678 26.034 0 34.712c104.136 86.78 156.203 182.237 156.203 269.017v0c0 69.424-43.39 156.203-104.136 199.593-8.678 8.678-17.356 26.034-8.678 34.712s26.034 17.356 34.712 8.678c78.102-34.712 130.169-138.847 130.169-234.305v0 0z" />
<glyph unicode="&#xe92b;" glyph-name="google-podcasts" horiz-adv-x="1050" d="M525.128 960c-32.821 0-65.641-26.256-65.641-65.641v-78.769c0-32.821 26.256-65.641 65.641-65.641 32.821 0 65.641 26.256 65.641 65.641v78.769c0 39.385-32.821 65.641-65.641 65.641zM525.128 677.744c-32.821 0-65.641-26.256-65.641-65.641v-334.769c0-32.821 26.256-65.641 65.641-65.641 32.821 0 65.641 26.256 65.641 65.641v334.769c0 39.385-32.821 65.641-65.641 65.641zM525.128 139.487c-32.821 0-65.641-26.256-65.641-65.641v-78.769c0-32.821 26.256-65.641 65.641-65.641 32.821 0 65.641 26.256 65.641 65.641v78.769c0 39.385-32.821 65.641-65.641 65.641zM295.385 342.974c-32.821 0-65.641-26.256-65.641-65.641v-78.769c0-32.821 26.256-65.641 65.641-65.641 32.821 0 65.641 26.256 65.641 65.641v78.769c0 39.385-32.821 65.641-65.641 65.641zM754.872 756.513c-32.821 0-65.641-26.256-65.641-65.641v-78.769c0-32.821 26.256-65.641 65.641-65.641 32.821 0 65.641 26.256 65.641 65.641v78.769c0 32.821-26.256 65.641-65.641 65.641zM295.385 782.769c-32.821 0-65.641-26.256-65.641-65.641v-229.744c0-32.821 26.256-65.641 65.641-65.641 32.821 0 65.641 26.256 65.641 65.641v229.744c0 32.821-32.821 65.641-65.641 65.641zM754.872 474.256c-32.821 0-65.641-26.256-65.641-65.641v-229.744c0-32.821 26.256-65.641 65.641-65.641 32.821 0 65.641 26.256 65.641 65.641v229.744c0 32.821-26.256 65.641-65.641 65.641zM65.641 553.026c-32.821 0-65.641-26.256-65.641-65.641v-78.769c0-32.821 26.256-65.641 65.641-65.641s65.641 26.256 65.641 65.641v78.769c0 32.821-32.821 65.641-65.641 65.641zM984.615 553.026c-32.821 0-65.641-26.256-65.641-65.641v-78.769c0-32.821 26.256-65.641 65.641-65.641 32.821 0 65.641 26.256 65.641 65.641v78.769c0 32.821-26.256 65.641-65.641 65.641z" />
<glyph unicode="&#xe92c;" glyph-name="deezer" horiz-adv-x="1575" d="M1230.769 960h344.615v-196.923h-344.615v196.923zM1230.769 684.308h344.615v-196.923h-344.615v196.923zM1230.769 408.615h344.615v-196.923h-344.615v196.923zM0 132.923h344.615v-196.923h-344.615v196.923zM413.538 132.923h344.615v-196.923h-344.615v196.923zM827.077 132.923h344.615v-196.923h-344.615v196.923zM1230.769 132.923h344.615v-196.923h-344.615v196.923zM827.077 408.615h344.615v-196.923h-344.615v196.923zM413.538 408.615h344.615v-196.923h-344.615v196.923zM413.538 684.308h344.615v-196.923h-344.615v196.923z" />
<glyph unicode="&#xe92d;" glyph-name="breaker" horiz-adv-x="999" d="M568.195 410.537c6.244 0 18.732 0 24.976 0 43.707-6.244 81.171-43.707 93.659-81.171 6.244-12.488 12.488-31.22 12.488-49.951l6.244-18.732h18.732c149.854 6.244 274.732 124.878 274.732 280.976 0 224.78-193.561 418.341-487.024 418.341-124.878 0-237.268-43.707-324.683-118.634-112.39-93.659-187.317-231.024-187.317-393.366 0-43.707 6.244-81.171 12.488-118.634 31.22-137.366 124.878-256 243.512-324.683 74.927-43.707 162.341-68.683 249.756-68.683 24.976 0 43.707 0 68.683 6.244 131.122 18.732 249.756 87.415 330.927 187.317l6.244 6.244-12.488 37.463-18.732-6.244c-62.439-18.732-124.878-24.976-187.317-24.976-49.951 0-106.146 6.244-156.098 18.732-43.707 6.244-81.171 43.707-93.659 87.415-6.244 6.244-6.244 18.732-6.244 31.22 0 31.22 12.488 62.439 31.22 81.171 24.976 31.22 56.195 49.951 99.902 49.951zM512 910.049c274.732 0 437.073-174.829 437.073-374.634 0-118.634-93.659-218.537-212.293-231.024-6.244 12.488-6.244 24.976-6.244 31.22-74.927 231.024-249.756 412.098-480.78 493.268 74.927 56.195 162.341 81.171 262.244 81.171zM49.951 448c0 137.366 62.439 268.488 162.341 349.659 187.317-62.439 337.171-187.317 430.829-355.902-18.732 6.244-31.22 12.488-43.707 12.488-49.951 12.488-106.146 18.732-162.341 18.732-137.366 0-268.488-37.463-380.878-99.902-6.244 24.976-6.244 49.951-6.244 74.927zM530.732 110.829c49.951-12.488 106.146-18.732 162.341-18.732 43.707 0 87.415 6.244 124.878 12.488-62.439-56.195-143.61-99.902-237.268-112.39-31.22 37.463-62.439 81.171-87.415 131.122 12.488-6.244 24.976-12.488 37.463-12.488zM524.488-14.049c-6.244 0-12.488 0-12.488 0-74.927 0-149.854 18.732-212.293 49.951 18.732 81.171 49.951 156.098 93.659 224.78 0-12.488 6.244-24.976 6.244-37.463 24.976-87.415 74.927-168.585 124.878-237.268zM430.829 398.049c-81.171-93.659-143.61-212.293-181.073-337.171-93.659 62.439-162.341 149.854-187.317 262.244 112.39 62.439 237.268 99.902 374.634 99.902 6.244 0 12.488 0 24.976 0-12.488-6.244-18.732-18.732-31.22-24.976z" />
<glyph unicode="&#xe92e;" glyph-name="audio" horiz-adv-x="1170" d="M585.143 960c-321.829 0-585.143-263.314-585.143-585.143v-146.286c0-29.257 19.505-48.762 48.762-48.762s48.762 19.505 48.762 48.762v146.286c0 273.067 214.552 487.619 487.619 487.619s487.619-214.552 487.619-487.619v-146.286c0-29.257 19.505-48.762 48.762-48.762s48.762 19.505 48.762 48.762v146.286c0 321.829-263.314 585.143-585.143 585.143zM789.943 521.143c-29.257 0-58.514-19.505-58.514-58.514v-477.867c0-29.257 19.505-58.514 58.514-58.514 126.781 0 234.057 107.276 234.057 234.057v126.781c0 126.781-107.276 234.057-234.057 234.057zM380.343 521.143c-126.781 0-234.057-107.276-234.057-234.057v-107.276c0-126.781 107.276-234.057 234.057-234.057 29.257 0 58.514 19.505 58.514 58.514v458.362c0 39.010-19.505 58.514-58.514 58.514z" />
<glyph unicode="&#xe92f;" glyph-name="apple-podcasts" d="M1024 748.8c0 19.2 0 32-6.4 51.2-25.6 96-102.4 160-211.2 160-198.4 0-396.8 0-595.2 0-102.4 0-179.2-64-204.8-160 0-12.8-6.4-19.2-6.4-32 0-211.2 0-428.8 0-640 0 0 0-6.4 0-6.4 12.8-83.2 57.6-140.8 140.8-172.8 19.2-6.4 32-6.4 51.2-12.8 217.6 0 428.8 0 646.4 0 6.4 0 19.2 0 25.6 6.4 102.4 25.6 166.4 108.8 166.4 211.2-6.4 192-6.4 396.8-6.4 595.2zM614.4 281.6c-6.4-51.2-12.8-102.4-19.2-153.6-6.4-32-25.6-51.2-57.6-51.2-19.2 0-32 0-51.2 0-32 0-57.6 19.2-64 51.2-6.4 51.2-12.8 96-19.2 147.2 0 57.6 32 102.4 83.2 121.6 6.4 0 12.8 0 19.2 6.4-57.6 6.4-89.6 44.8-83.2 89.6 6.4 51.2 44.8 83.2 89.6 83.2s83.2-38.4 89.6-83.2c6.4-44.8-25.6-83.2-76.8-96 6.4 0 6.4 0 6.4 0 51.2-12.8 89.6-57.6 83.2-115.2zM659.2 384c19.2 32 25.6 70.4 19.2 108.8-6.4 70.4-64 128-134.4 140.8-64 12.8-140.8-12.8-172.8-76.8-38.4-57.6-38.4-115.2-6.4-172.8 0-6.4 6.4-6.4 0-12.8-6.4-19.2-12.8-38.4-19.2-57.6-76.8 70.4-96 217.6 6.4 313.6 96 96 249.6 89.6 339.2-12.8s57.6-243.2-6.4-300.8c-6.4 19.2-12.8 38.4-19.2 57.6-6.4 0-6.4 6.4-6.4 12.8zM659.2 153.6c0 0 0 6.4 0 6.4 0 19.2 6.4 38.4 6.4 57.6 0 6.4 6.4 12.8 6.4 12.8 70.4 51.2 115.2 121.6 121.6 211.2 6.4 102.4-25.6 185.6-102.4 249.6-96 83.2-224 89.6-332.8 19.2-102.4-64-153.6-185.6-128-300.8 12.8-76.8 57.6-134.4 115.2-179.2 6.4 0 6.4-6.4 6.4-6.4 6.4-19.2 6.4-44.8 6.4-70.4-121.6 57.6-230.4 204.8-192 384 32 160 172.8 281.6 345.6 281.6s326.4-128 345.6-307.2c19.2-160-70.4-300.8-198.4-358.4z" />
<glyph unicode="&#xe930;" glyph-name="amazon-music" d="M243.2 960c-134.4 0-243.2-108.8-243.2-243.2v-537.6c0-134.4 108.8-243.2 243.2-243.2h537.6c134.4 0 243.2 108.8 243.2 243.2v537.6c0 134.4-108.8 243.2-243.2 243.2h-537.6zM243.2 908.8h537.6c108.8 0 192-89.6 192-192v-537.6c0-108.8-89.6-192-192-192h-537.6c-108.8 0-192 89.6-192 192v537.6c0 108.8 83.2 192 192 192zM729.6 620.8c-12.8 0-25.6-12.8-25.6-25.6s12.8-25.6 25.6-25.6c12.8 0 25.6 12.8 25.6 25.6s-12.8 25.6-25.6 25.6zM128 544v-172.8h38.4v128c12.8 0 25.6 6.4 38.4 6.4 6.4 6.4 19.2 0 19.2-12.8v-115.2h38.4v108.8c0 6.4 0 6.4 0 12.8 12.8 0 25.6 6.4 38.4 6.4 12.8 6.4 19.2 0 25.6-12.8v-115.2h38.4v108.8c0 6.4 0 6.4 0 12.8-12.8 12.8-19.2 25.6-32 38.4-12.8 6.4-32 6.4-44.8 0s-25.6-6.4-38.4-12.8c-6.4 0-12.8 6.4-12.8 12.8-12.8 6.4-32 6.4-44.8 0-6.4 0-19.2-6.4-25.6-12.8v19.2h-38.4zM435.2 544h-38.4v-57.6c0-19.2 0-38.4 0-57.6 0-12.8 6.4-25.6 19.2-38.4s25.6-12.8 38.4-12.8c12.8 0 25.6 0 38.4 6.4 0 0 0 0 0 0v-6.4h38.4v166.4h-38.4v-128c-6.4 0-12.8-6.4-12.8-6.4-12.8-6.4-12.8-6.4-25.6-6.4s-25.6 12.8-25.6 25.6c0 19.2 0 38.4 0 57.6l6.4 57.6zM710.4 544v-172.8h38.4v172.8h-38.4zM857.6 544c-6.4 0-19.2 0-25.6-6.4-32-12.8-51.2-44.8-44.8-76.8 0-12.8 0-25.6 6.4-44.8 6.4-12.8 19.2-25.6 32-38.4 12.8-6.4 32-12.8 44.8-6.4 6.4 0 19.2 0 25.6 6.4v25.6c-19.2-6.4-44.8-6.4-57.6 6.4-12.8 6.4-25.6 32-25.6 51.2s6.4 38.4 25.6 51.2c12.8 6.4 38.4 6.4 51.2-6.4v25.6c-6.4 6.4-12.8 6.4-19.2 6.4 6.4 6.4 0 6.4-12.8 6.4zM627.2 544c-6.4 0-12.8 0-19.2-6.4-19.2-6.4-38.4-19.2-38.4-32-6.4-25.6 12.8-44.8 25.6-51.2s19.2-6.4 25.6-6.4c19.2-6.4 25.6-6.4 32-12.8 0-6.4 0-6.4 0-12.8s0-6.4-6.4-12.8-19.2-6.4-38.4-6.4c-12.8 0-32 6.4-44.8 12.8v-25.6c12.8-6.4 25.6-12.8 44.8-12.8s38.4-6.4 57.6 6.4c12.8 6.4 25.6 12.8 25.6 38.4s-19.2 38.4-32 44.8c-6.4 0-19.2 6.4-25.6 6.4s-32 6.4-32 25.6c0 6.4 12.8 12.8 19.2 12.8 19.2 6.4 44.8 0 64-6.4v25.6c-19.2 12.8-38.4 12.8-57.6 12.8zM870.4 300.8c-25.6 0-57.6-6.4-83.2-25.6-6.4-6.4-6.4-12.8 0-12.8 25.6 6.4 89.6 12.8 102.4-6.4 12.8-12.8-12.8-70.4-19.2-96-6.4-6.4 6.4-12.8 12.8-6.4 44.8 38.4 57.6 121.6 51.2 128-12.8 12.8-38.4 19.2-64 19.2zM121.6 281.6c0 0-6.4 0 0 0-6.4-6.4-6.4-6.4 0-12.8 51.2-38.4 108.8-70.4 166.4-96s121.6-38.4 192-44.8c64-6.4 134.4 0 192 19.2 64 19.2 121.6 44.8 179.2 76.8 6.4 6.4 6.4 12.8 6.4 12.8 0 6.4-12.8 6.4-19.2 6.4v0c-57.6-25.6-115.2-44.8-172.8-57.6s-121.6-19.2-179.2-12.8c-57.6 0-121.6 12.8-179.2 32-70.4 25.6-128 44.8-185.6 76.8v0c0 0 0 0 0 0z" />
<glyph unicode="&#xe931;" glyph-name="tick-1" d="M428.218-64c-12.412 0-24.824 6.206-31.030 12.412l-384.776 390.982c-18.618 18.618-18.618 49.648 0 68.267s49.648 18.618 68.267 0l341.333-347.539 515.103 881.261c12.412 24.824 43.442 31.030 62.061 18.618 24.824-12.412 31.030-43.442 18.618-62.061l-546.133-930.909c-6.206-18.618-24.824-31.030-43.442-31.030 6.206 0 6.206 0 0 0z" />
<glyph unicode="&#xe932;" glyph-name="youtube" d="M409.6 573.673l256-134.982-256-134.982v269.964zM512 745.891c-130.327 4.655-260.655-4.655-386.327-18.618-13.964-4.655-23.273-9.309-37.236-18.618-9.309-13.964-13.964-23.273-18.618-37.236-13.964-74.473-18.618-153.6-18.618-232.727s4.655-158.255 18.618-232.727c4.655-13.964 9.309-23.273 18.618-32.582s23.273-18.618 32.582-18.618c130.327-13.964 256-23.273 386.327-18.618 130.327-4.655 260.655 4.655 386.327 18.618 13.964 4.655 23.273 9.309 32.582 18.618s18.618 23.273 18.618 32.582c13.964 79.127 18.618 153.6 18.618 232.727s-4.655 158.255-18.618 232.727c-4.655 13.964-9.309 23.273-18.618 32.582s-23.273 18.618-32.582 18.618c-121.018 18.618-251.345 27.927-381.673 23.273zM512 797.091c0 0 321.164 0 400.291-23.273 23.273-4.655 41.891-18.618 55.855-32.582s27.927-37.236 32.582-55.855c18.618-83.782 23.273-162.909 23.273-246.691s-4.655-162.909-23.273-246.691c-4.655-23.273-18.618-41.891-32.582-55.855s-37.236-27.927-55.855-32.582c-79.127-23.273-400.291-23.273-400.291-23.273s-321.164 0-400.291 23.273c-23.273 4.655-41.891 18.618-55.855 32.582s-27.927 37.236-32.582 55.855c-18.618 83.782-23.273 162.909-23.273 246.691s4.655 162.909 23.273 246.691c4.655 23.273 18.618 41.891 32.582 55.855s37.236 27.927 55.855 32.582c79.127 23.273 400.291 23.273 400.291 23.273z" />
<glyph unicode="&#xe933;" glyph-name="travel" horiz-adv-x="885" d="M30.266 31.842v32.788c52.966 0 93.32 42.877 93.32 95.842v416.158c0 52.966-42.877 95.842-93.32 95.842v0 32.788c0 17.655 15.133 32.788 32.788 32.788h504.433c17.655 0 32.788-15.133 32.788-32.788v-32.788c-52.966 0-93.32-42.877-93.32-95.842v-65.576h30.266v65.576c0 35.31 27.744 63.054 63.054 63.054v0-128.631h30.266v191.685c0 35.31-27.744 63.054-63.054 63.054h-126.108v194.207h-252.217v-191.685h-126.108c-35.31 0-63.054-30.266-63.054-65.576v-673.419c0-27.744 20.177-52.966 47.921-60.532v-35.31h30.266v32.788h143.764v30.266h-158.897c-17.655 2.522-32.788 17.655-32.788 35.31zM221.951 929.734h189.163v-32.788h-189.163v32.788zM221.951 864.158h189.163v-95.842h-189.163v95.842zM32.788 639.685c35.31 0 63.054-27.744 63.054-63.054v-416.158c0-35.31-27.744-63.054-63.054-63.054v0 542.266zM237.084 672.473h30.266v-30.266h-30.266v30.266zM300.138 672.473h30.266v-30.266h-30.266v30.266zM363.192 672.473h32.788v-30.266h-32.788v30.266zM837.36 382.424h-158.897v50.443c0 25.222-20.177 47.921-47.921 47.921h-126.108c-25.222 0-47.921-20.177-47.921-47.921v-50.443h-158.897c-25.222 0-47.921-20.177-47.921-47.921v-353.103c0-25.222 20.177-47.921 47.921-47.921h537.222c25.222 0 47.921 20.177 47.921 47.921v353.103c2.522 27.744-17.655 47.921-45.399 47.921zM852.493 334.502v-30.266h-32.788c-7.567 0-15.133 7.567-15.133 15.133v30.266h32.788c10.089 2.522 15.133-5.044 15.133-15.133zM774.305-0.946v-32.788h-411.113v32.788c0 25.222-20.177 47.921-47.921 47.921h-30.266v224.473h30.266c25.222 0 47.921 20.177 47.921 47.921v30.266h411.113v-30.266c0-25.222 20.177-47.921 47.921-47.921h32.788v-224.473h-32.788c-25.222 0-47.921-20.177-47.921-47.921zM489.3 432.867c0 7.567 7.567 15.133 15.133 15.133h126.108c7.567 0 15.133-7.567 15.133-15.133v-50.443h-156.374v50.443zM300.138 352.158h30.266v-30.266c0-7.567-7.567-15.133-15.133-15.133h-30.266v30.266c0 7.567 7.567 15.133 15.133 15.133zM285.005-16.079v32.788h30.266c7.567 0 15.133-7.567 15.133-15.133v-32.788h-30.266c-7.567-2.522-15.133 5.044-15.133 15.133zM837.36-33.734h-30.266v32.788c0 7.567 7.567 15.133 15.133 15.133h32.788v-32.788c-2.522-7.567-7.567-15.133-17.655-15.133zM395.98 46.975h348.059v-30.266h-348.059v30.266z" />
<glyph unicode="&#xe934;" glyph-name="time" d="M658.286 209.067l-209.676 214.552v282.819h126.781v-234.057l175.543-175.543-92.648-87.771zM512 960c-282.819 0-512-229.181-512-512s229.181-512 512-512 512 229.181 512 512-229.181 512-512 512zM512 62.781c-209.676 0-385.219 170.667-385.219 385.219s170.667 385.219 385.219 385.219 385.219-170.667 385.219-385.219-175.543-385.219-385.219-385.219z" />
<glyph unicode="&#xe935;" glyph-name="ticket" d="M575.39 638.171l126.781-126.781-253.562-253.562-126.781 126.781 253.562 253.562zM999.619 662.552l-73.143 73.143-34.133-34.133c-14.629-14.629-39.010-24.381-63.39-24.381-48.762 0-92.648 39.010-92.648 92.648 0 24.381 9.752 48.762 24.381 63.39l39.010 29.257-73.143 73.143c-29.257 29.257-78.019 29.257-107.276 0l-594.895-594.895c-29.257-29.257-29.257-78.019 0-107.276l73.143-73.143 34.133 34.133c14.629 14.629 39.010 24.381 63.39 24.381 48.762 0 92.648-39.010 92.648-92.648 0-24.381-9.752-48.762-24.381-63.39l-39.010-29.257 73.143-73.143c29.257-29.257 78.019-29.257 107.276 0l594.895 594.895c34.133 29.257 34.133 78.019 0 107.276zM448.61 126.171l-253.562 258.438 385.219 385.219 258.438-253.562-390.095-390.095z" />
<glyph unicode="&#xe936;" glyph-name="tick" d="M358.4 121.6l-358.4 326.4 64 70.4 294.4-262.4 601.6 544 64-70.4z" />
<glyph unicode="&#xe937;" glyph-name="printer" d="M256 908.8h512v-128h-512v128zM962.56 714.24h-901.12c-30.72 0-61.44-25.6-61.44-61.44v-317.44c0-35.84 30.72-61.44 61.44-61.44h194.56v-256h512v256h194.56c35.84 0 61.44 30.72 61.44 61.44v317.44c0 35.84-30.72 61.44-61.44 61.44zM128 524.8c-35.84 0-61.44 30.72-61.44 61.44s25.6 66.56 61.44 66.56 61.44-30.72 61.44-61.44-25.6-66.56-61.44-66.56zM706.56 79.36h-389.12v317.44h384v-317.44z" />
<glyph unicode="&#xe938;" glyph-name="plus" d="M199.111 960c-54.044 0-102.4-22.756-142.222-59.733-36.978-39.822-56.889-91.022-56.889-145.067v-614.4c0-54.044 19.911-105.244 59.733-145.067 36.978-36.978 88.178-59.733 139.378-59.733h625.778c54.044 0 102.4 22.756 142.222 59.733 36.978 36.978 59.733 91.022 59.733 145.067v819.2h-827.733zM739.556 425.244h-204.8v-204.8c0-11.378-8.533-22.756-22.756-22.756s-22.756 8.533-22.756 22.756v204.8h-204.8c-11.378 0-22.756 8.533-22.756 22.756s8.533 22.756 22.756 22.756h204.8v204.8c0 11.378 8.533 22.756 22.756 22.756s22.756-8.533 22.756-22.756v-204.8h204.8c11.378 0 22.756-8.533 22.756-22.756s-11.378-22.756-22.756-22.756z" />
<glyph unicode="&#xe939;" glyph-name="plus-1" d="M514.926-64c-23.406 0-46.811 17.554-46.811 46.811v421.303h-421.303c-29.257 0-46.811 17.554-46.811 40.96s17.554 46.811 46.811 46.811h421.303v421.303c0 29.257 17.554 46.811 46.811 46.811s46.811-17.554 46.811-46.811v-421.303h421.303c23.406 0 46.811-17.554 46.811-46.811s-17.554-46.811-46.811-46.811h-427.154v-421.303c0-23.406-17.554-40.96-40.96-40.96z" />
<glyph unicode="&#xe93a;" glyph-name="pin" d="M516.876 960c-180.419 0-321.829-141.41-321.829-321.829 0-316.952 321.829-702.171 321.829-702.171s321.829 385.219 321.829 702.171c-4.876 180.419-146.286 321.829-321.829 321.829zM516.876 443.124c-107.276 0-195.048 87.771-195.048 195.048s87.771 195.048 195.048 195.048 195.048-87.771 195.048-195.048-87.771-195.048-195.048-195.048zM390.095 638.171c0 68.267 58.514 126.781 126.781 126.781s121.905-53.638 121.905-121.905c0-73.143-53.638-126.781-121.905-126.781s-126.781 53.638-126.781 121.905z" />
<glyph unicode="&#xe93b;" glyph-name="modify" horiz-adv-x="795" d="M700.893 30.447h-350.447v-29.825h365.359c7.456 0 14.913 7.456 14.913 14.913v367.845h-29.825v-352.932zM29.825 930.175h541.825v-111.845c0-7.456 7.456-14.913 14.913-14.913h111.845v-161.553h29.825v173.981c0 4.971-2.485 7.456-4.971 9.942l-126.757 129.243c0 2.485-2.485 4.971-7.456 4.971h-574.136c-7.456 0-14.913-7.456-14.913-14.913v-929.553c0-7.456 7.456-14.913 14.913-14.913h94.447v29.825h-79.534v899.728zM603.961 907.806l74.563-74.563h-74.563v74.563zM790.369 522.563l-79.534 79.534c-2.485 2.485-7.456 4.971-9.942 4.971-4.971 0-7.456-2.485-9.942-4.971l-52.194-54.68-37.282 39.767c-4.971 4.971-17.398 4.971-22.369 0l-159.068-159.068 22.369-22.369 149.126 149.126 24.854-24.854-437.437-439.922c-2.485-2.485-2.485-2.485-2.485-4.971l-47.223-129.243c-2.485-4.971 0-12.427 2.485-17.398 2.485-2.485 7.456-4.971 9.942-4.971s2.485 0 4.971 0l129.243 49.709c2.485 0 4.971 2.485 4.971 2.485l509.515 512c7.456 9.942 7.456 17.398 0 24.854zM636.272 505.165l57.165-57.165-263.456-265.942-57.165 57.165 263.456 265.942zM196.35 50.33l44.738-44.738-74.563-27.34 29.825 72.078zM270.913 20.505l-57.165 57.165 136.699 139.184 57.165-57.165-136.699-139.184zM715.806 470.369l-57.165 57.165 42.252 42.252 57.165-59.65-42.252-39.767z" />
<glyph unicode="&#xe93c;" glyph-name="lock" d="M814.080 550.4h-15.36v204.8c0 112.64-97.28 204.8-215.040 204.8h-143.36c-117.76 0-215.040-92.16-215.040-204.8v-204.8h-20.48c-25.6 0-51.2-25.6-51.2-51.2v-512c0-25.6 25.6-51.2 51.2-51.2h609.28c30.72 0 56.32 25.6 56.32 51.2v512c0 25.6-25.6 51.2-56.32 51.2zM368.64 755.2c0 35.84 30.72 66.56 71.68 66.56h143.36c40.96 0 71.68-30.72 71.68-66.56v-204.8h-286.72v204.8z" />
<glyph unicode="&#xe93d;" glyph-name="list" d="M256 652.8h716.8c30.72 0 51.2 20.48 51.2 51.2s-20.48 51.2-51.2 51.2h-716.8c-30.72 0-51.2-20.48-51.2-51.2s20.48-51.2 51.2-51.2zM972.8 499.2h-716.8c-30.72 0-51.2-20.48-51.2-51.2s20.48-51.2 51.2-51.2h716.8c30.72 0 51.2 20.48 51.2 51.2s-20.48 51.2-51.2 51.2zM972.8 243.2h-716.8c-30.72 0-51.2-20.48-51.2-51.2s20.48-51.2 51.2-51.2h716.8c30.72 0 51.2 20.48 51.2 51.2s-20.48 51.2-51.2 51.2zM87.040 739.84c-5.12 5.12-10.24 10.24-15.36 10.24-20.48 10.24-40.96 5.12-56.32-10.24-5.12-5.12-10.24-10.24-10.24-15.36-5.12-15.36-5.12-25.6 0-40.96 5.12-5.12 5.12-10.24 10.24-15.36s10.24-10.24 15.36-10.24c5.12-5.12 15.36-5.12 20.48-5.12 15.36 0 25.6 5.12 35.84 15.36 5.12 5.12 10.24 10.24 10.24 15.36 5.12 15.36 5.12 25.6 0 40.96 0 5.12-5.12 10.24-10.24 15.36zM87.040 483.84c-15.36 15.36-35.84 20.48-56.32 10.24-5.12-5.12-10.24-5.12-15.36-10.24s-10.24-10.24-10.24-15.36-5.12-25.6 0-40.96c5.12-5.12 5.12-10.24 10.24-15.36s10.24-10.24 15.36-10.24c5.12-5.12 15.36-5.12 20.48-5.12s15.36 0 20.48 5.12c5.12 5.12 10.24 5.12 15.36 10.24s10.24 10.24 10.24 15.36 5.12 25.6 0 40.96c0 5.12-5.12 10.24-10.24 15.36zM87.040 227.84c-5.12 5.12-10.24 10.24-15.36 10.24-10.24 5.12-25.6 5.12-40.96 0-5.12 0-10.24-5.12-15.36-10.24s-10.24-10.24-10.24-15.36c-10.24-20.48-5.12-40.96 10.24-56.32 5.12-5.12 10.24-10.24 15.36-10.24 5.12-5.12 15.36-5.12 20.48-5.12s15.36 0 20.48 5.12c5.12 5.12 10.24 5.12 15.36 10.24 15.36 15.36 20.48 35.84 10.24 56.32 0 5.12-5.12 10.24-10.24 15.36z" />
<glyph unicode="&#xe93e;" glyph-name="grid" d="M409.6 396.8h-358.4c-30.72 0-51.2-20.48-51.2-51.2v-358.4c0-30.72 20.48-51.2 51.2-51.2h358.4c30.72 0 51.2 20.48 51.2 51.2v358.4c0 30.72-20.48 51.2-51.2 51.2zM409.6 960h-358.4c-30.72 0-51.2-20.48-51.2-51.2v-358.4c0-30.72 20.48-51.2 51.2-51.2h358.4c30.72 0 51.2 20.48 51.2 51.2v358.4c0 30.72-20.48 51.2-51.2 51.2zM972.8 960h-358.4c-30.72 0-51.2-20.48-51.2-51.2v-358.4c0-30.72 20.48-51.2 51.2-51.2h358.4c30.72 0 51.2 20.48 51.2 51.2v358.4c0 30.72-20.48 51.2-51.2 51.2zM972.8 396.8h-358.4c-30.72 0-51.2-20.48-51.2-51.2v-358.4c0-30.72 20.48-51.2 51.2-51.2h358.4c30.72 0 51.2 20.48 51.2 51.2v358.4c0 30.72-20.48 51.2-51.2 51.2z" />
<glyph unicode="&#xe93f;" glyph-name="clubhouse-1" d="M1004.495 574.781c-4.876 9.752-19.505 14.629-29.257 14.629-39.010 0-63.39-29.257-78.019-53.638-4.876-9.752-9.752-24.381-14.629-34.133-9.752-29.257-14.629-39.010-39.010-58.514-14.629-9.752-29.257-24.381-39.010-34.133-14.629-19.505-19.505-39.010-24.381-63.39 0-4.876-14.629-9.752-29.257-9.752-9.752 0-9.752 4.876-9.752 19.505s4.876 39.010 14.629 58.514c14.629 29.257 34.133 43.886 48.762 58.514 19.505 14.629 24.381 19.505 24.381 29.257-14.629 19.505-29.257 43.886-43.886 63.39-19.505 39.010-34.133 68.267-48.762 102.4-9.752 24.381-14.629 58.514-19.505 82.895-9.752 53.638-19.505 63.39-34.133 68.267s-34.133 0-43.886-9.752c-4.876-19.505-4.876-29.257-4.876-43.886 4.876-34.133 9.752-63.39 14.629-87.771 14.629-58.514 43.886-107.276 53.638-136.533 4.876-9.752 9.752-14.629 14.629-14.629 9.752 0 14.629 0 24.381 0s14.629-4.876 14.629-14.629c0-9.752-4.876-9.752-19.505-14.629-29.257-4.876-63.39-14.629-97.524-34.133-24.381-14.629-48.762-34.133-73.143-63.39 0-4.876-4.876-4.876-9.752-4.876s-9.752 4.876-14.629 9.752c0 9.752-4.876 14.629-4.876 19.505s0 9.752 9.752 14.629 19.505 19.505 19.505 24.381c0 4.876-4.876 14.629-14.629 24.381-9.752 19.505-24.381 53.638-39.010 78.019-14.629 39.010-29.257 92.648-34.133 126.781-9.752 34.133-19.505 43.886-39.010 43.886-29.257 0-48.762-14.629-48.762-39.010 0-14.629 4.876-34.133 14.629-68.267 4.876-24.381 14.629-43.886 19.505-58.514 14.629-34.133 24.381-63.39 34.133-87.771 9.752-19.505 24.381-48.762 29.257-58.514 4.876-4.876 9.752-19.505 9.752-24.381 0-9.752-9.752-19.505-19.505-19.505-4.876 0-14.629 4.876-19.505 14.629-9.752 9.752-24.381 48.762-39.010 73.143-9.752 24.381-24.381 58.514-34.133 87.771-9.752 43.886-19.505 58.514-43.886 58.514-14.629 0-24.381-4.876-34.133-14.629s-9.752-24.381 0-48.762c14.629-43.886 29.257-87.771 48.762-131.657 29.257-73.143 53.638-112.152 82.895-160.914 39.010-58.514 73.143-117.029 131.657-156.038 39.010-24.381 92.648-39.010 141.41-39.010 68.267 0 126.781 29.257 160.914 63.39 39.010 34.133 82.895 102.4 82.895 234.057 0 63.39 29.257 117.029 43.886 151.162 4.876 9.752 14.629 29.257 14.629 39.010-4.876 9.752-4.876 19.505-9.752 24.381zM531.505 647.924c4.876-29.257 14.629-53.638 24.381-73.143 9.752-24.381 19.505-48.762 39.010-78.019 9.752-14.629 9.752-14.629 29.257-4.876 14.629 9.752 34.133 14.629 48.762 19.505-29.257 58.514-48.762 107.276-58.514 146.286-4.876 9.752-14.629 58.514-14.629 78.019s-4.876 39.010-9.752 58.514c-14.629 34.133-19.505 43.886-43.886 43.886-19.505 0-48.762-9.752-48.762-39.010 0-19.505 4.876-43.886 9.752-68.267 9.752-24.381 14.629-34.133 24.381-82.895zM214.552 350.476c-19.505-4.876-97.524-34.133-112.152-39.010-19.505-9.752-34.133-14.629-24.381-48.762 9.752-24.381 24.381-24.381 39.010-19.505 19.505 4.876 102.4 48.762 117.029 58.514 9.752 9.752 14.629 14.629 9.752 34.133-4.876 14.629-14.629 14.629-29.257 14.629zM160.914 477.257c9.752 0 19.505 4.876 19.505 24.381 0 14.629 0 19.505-14.629 24.381s-112.152 19.505-131.657 24.381c-19.505 0-29.257 0-34.133-29.257 0-24.381 4.876-34.133 24.381-39.010 19.505 0 117.029-4.876 136.533-4.876zM53.638 730.819c19.505-9.752 97.524-58.514 121.905-68.267 14.629-4.876 19.505 0 29.257 14.629 4.876 19.505 4.876 24.381-9.752 34.133s-87.771 68.267-112.152 82.895c-14.629 9.752-29.257 4.876-39.010-19.505-14.629-19.505-9.752-29.257 9.752-43.886z" />
<glyph unicode="&#xe940;" glyph-name="calendar" d="M346.21 574.781h126.781v-126.781h-126.781v126.781zM536.381 574.781h126.781v-126.781h-126.781v126.781zM726.552 574.781h126.781v-126.781h-126.781v126.781zM151.162 189.562h126.781v-126.781h-126.781v126.781zM346.21 189.562h126.781v-126.781h-126.781v126.781zM536.381 189.562h126.781v-126.781h-126.781v126.781zM346.21 384.61h126.781v-126.781h-126.781v126.781zM536.381 384.61h126.781v-126.781h-126.781v126.781zM726.552 384.61h126.781v-126.781h-126.781v126.781zM151.162 384.61h126.781v-126.781h-126.781v126.781zM858.21 960v-63.39h-126.781v63.39h-453.486v-63.39h-126.781v63.39h-126.781v-1024h960.61v1024h-126.781zM921.6-0.61h-833.829v707.048h833.829v-707.048z" />
<glyph unicode="&#xe941;" glyph-name="calendar-1" d="M0 65.873h512v24.976h-487.024v684.332h974.049v-392.117h24.976v417.093h-1024zM427.083 670.283h-89.912v-89.912h89.912v89.912zM402.107 605.346h-39.961v39.961h39.961v-39.961zM556.956 670.283h-89.912v-89.912h89.912v89.912zM531.98 605.346h-39.961v39.961h39.961v-39.961zM686.829 670.283h-89.912v-89.912h89.912v89.912zM661.854 605.346h-39.961v39.961h39.961v-39.961zM814.205 670.283h-89.912v-89.912h89.912v89.912zM789.229 605.346h-39.961v39.961h39.961v-39.961zM944.078 670.283h-89.912v-89.912h89.912v89.912zM919.102 605.346h-39.961v39.961h39.961v-39.961zM427.083 540.41h-89.912v-89.912h89.912v89.912zM402.107 475.473h-39.961v39.961h39.961v-39.961zM299.707 540.41h-89.912v-89.912h89.912v89.912zM274.732 475.473h-39.961v39.961h39.961v-39.961zM169.834 540.41h-89.912v-89.912h89.912v89.912zM144.859 475.473h-39.961v39.961h39.961v-39.961zM467.044 450.498h89.912v89.912h-89.912v-89.912zM492.020 515.434h39.961v-39.961h-39.961v39.961zM596.917 450.498h89.912v89.912h-89.912v-89.912zM621.893 515.434h39.961v-39.961h-39.961v39.961zM724.293 450.498h89.912v89.912h-89.912v-89.912zM749.268 515.434h39.961v-39.961h-39.961v39.961zM854.166 450.498h89.912v89.912h-89.912v-89.912zM879.141 515.434h39.961v-39.961h-39.961v39.961zM427.083 413.034h-89.912v-89.912h89.912v89.912zM402.107 348.098h-39.961v39.961h39.961v-39.961zM299.707 413.034h-89.912v-89.912h89.912v89.912zM274.732 348.098h-39.961v39.961h39.961v-39.961zM169.834 413.034h-89.912v-89.912h89.912v89.912zM144.859 348.098h-39.961v39.961h39.961v-39.961zM467.044 323.122h89.912v89.912h-89.912v-89.912zM492.020 388.059h39.961v-39.961h-39.961v39.961zM337.171 193.249h89.912v89.912h-89.912v-89.912zM362.146 258.185h39.961v-39.961h-39.961v39.961zM209.795 193.249h89.912v89.912h-89.912v-89.912zM234.771 258.185h39.961v-39.961h-39.961v39.961zM79.922 193.249h89.912v89.912h-89.912v-89.912zM104.898 258.185h39.961v-39.961h-39.961v39.961zM0 960v-124.878h24.976v99.902h974.049v-99.902h24.976v124.878zM954.068 343.102c-22.478 22.478-47.454 39.961-77.424 52.449s-59.941 17.483-89.912 17.483c0 0 0 0 0 0-47.454 0-92.41-14.985-132.371-39.961-39.961-27.473-69.932-62.439-87.415-107.395-17.483-42.459-22.478-92.41-12.488-137.366 9.99-47.454 32.468-87.415 64.937-122.38 32.468-32.468 74.927-54.946 122.38-64.937 14.985-2.498 29.971-4.995 47.454-4.995 29.971 0 62.439 4.995 89.912 17.483 42.459 17.483 79.922 47.454 107.395 87.415s39.961 84.917 39.961 132.371c0 32.468-4.995 62.439-17.483 89.912-14.985 29.971-32.468 57.444-54.946 79.922zM964.059 55.883c-22.478-34.966-57.444-62.439-94.907-77.424-39.961-14.985-82.42-19.98-122.38-12.488-42.459 7.493-79.922 27.473-109.893 57.444s-49.951 67.434-57.444 109.893c-7.493 42.459-4.995 84.917 12.488 122.38 14.985 39.961 42.459 72.429 77.424 94.907s74.927 34.966 117.385 34.966c0 0 0 0 0 0 27.473 0 54.946-4.995 82.42-14.985 24.976-9.99 49.951-27.473 69.932-44.956 19.98-19.98 34.966-42.459 47.454-69.932 9.99-24.976 14.985-52.449 14.985-82.42-2.498-42.459-14.985-82.42-37.463-117.385zM919.102 183.259h-117.385v117.385c0 7.493-4.995 12.488-12.488 12.488s-12.488-4.995-12.488-12.488v-117.385h-117.385c-7.493 0-12.488-4.995-12.488-12.488s4.995-12.488 12.488-12.488h117.385v-117.385c0-7.493 4.995-12.488 12.488-12.488s12.488 4.995 12.488 12.488v117.385h117.385c7.493 0 12.488 4.995 12.488 12.488s-4.995 12.488-12.488 12.488z" />
<glyph unicode="&#xe942;" glyph-name="batch" d="M1024 426.057c0 80.457-43.886 146.286-102.4 175.543 7.314 21.943 14.629 43.886 14.629 65.829 0 109.714-80.457 197.486-182.857 197.486-21.943 0-43.886-7.314-65.829-14.629-36.571 65.829-102.4 109.714-175.543 109.714s-138.971-43.886-168.229-109.714c-21.943 7.314-43.886 14.629-65.829 14.629-102.4 0-182.857-87.771-182.857-197.486 0-21.943 7.314-43.886 14.629-65.829-65.829-36.571-109.714-102.4-109.714-175.543s36.571-138.971 95.086-168.229c0-7.314 0-14.629 0-21.943 0-109.714 80.457-197.486 182.857-197.486 21.943 0 43.886 7.314 65.829 14.629 29.257-73.143 95.086-117.029 168.229-117.029s138.971 43.886 168.229 109.714c21.943-7.314 43.886-14.629 65.829-14.629 102.4 0 182.857 87.771 182.857 197.486 0 7.314 0 14.629 0 21.943 58.514 36.571 95.086 102.4 95.086 175.543zM702.171 586.971l-212.114-314.514c-7.314-14.629-21.943-21.943-29.257-21.943s-14.629 0-21.943 7.314l-124.343 124.343c-14.629 14.629-14.629 36.571 0 51.2s36.571 14.629 51.2 0l87.771-87.771 182.857 277.943c14.629 14.629 36.571 21.943 51.2 7.314 21.943-7.314 21.943-29.257 14.629-43.886z" />
<glyph unicode="&#xe943;" glyph-name="time-1" horiz-adv-x="1240" d="M711.411 960c291.032 0 528.168-231.747 528.168-512s-237.137-512-528.168-512v107.789c107.789 0 215.579 43.116 291.032 118.568s118.568 177.853 118.568 285.642c0 107.789-43.116 210.189-118.568 285.642s-177.853 118.568-291.032 118.568-215.579-43.116-291.032-118.568c-59.284-59.284-97.011-134.737-113.179-210.189h220.968l-264.084-291.032-264.084 291.032h194.021c37.726 247.916 253.305 436.547 517.389 436.547zM937.768 448v-188.632l-301.811 161.684v317.979h150.905v-220.968l150.905-70.063z" />
<glyph unicode="&#xe944;" glyph-name="arrow-right-lg" horiz-adv-x="1504" d="M1002.336 944.608c-20.096 20.544-53.568 20.544-74.368 0-20.096-19.84-20.096-52.864 0-72.64l377.056-372.16h-1244.224c-28.992-0.032-52.064-22.784-52.064-51.424s23.040-52.128 52.064-52.128h1244.224l-377.056-371.456c-20.096-20.544-20.096-53.6 0-73.408 20.8-20.544 54.304-20.544 74.368 0l466.304 460.256c20.8 19.84 20.8 52.864 0 72.672l-466.304 460.288z" />
<glyph unicode="&#xe945;" glyph-name="headphone-1" horiz-adv-x="1088" d="M540.512 960c280.128 0 507.264-229.248 507.264-512 0-61.376-10.72-120.256-30.368-174.848 19.264-33.216 30.368-71.872 30.368-113.152 0-112.832-82.688-206.144-190.208-221.696v443.456c31.648-4.608 61.12-15.872 87.008-32.448 5.312 26.752 8.096 54.4 8.096 82.688 0 229.76-184.512 416-412.128 416s-412.128-186.24-412.128-416c0-28.352 2.848-56 8.192-82.688 25.856 16.512 55.296 27.84 86.944 32.384v-443.392c-107.552 15.488-190.208 108.864-190.208 221.696 0 41.28 11.104 79.936 30.368 113.152-19.648 54.528-30.368 113.408-30.368 174.848 0 282.752 227.136 512 507.264 512zM318.592 384h-63.392v-448h63.392c17.44 0 31.712 14.4 31.712 32v384c0 17.6-14.272 32-31.712 32zM762.4 384c-17.44 0-31.712-14.4-31.712-32v-384c0-17.6 14.272-32 31.712-32h63.424v448h-63.424z" />
<glyph unicode="&#xe946;" glyph-name="amazon" d="M1019.776 180.416v0c-12.64 16.864-71.648 16.864-109.568 12.64s-92.704-25.28-88.48-37.92c4.224-4.224 8.416-4.224 33.696 0s96.928 12.64 113.792-8.416c16.864-21.056-21.056-109.568-29.504-126.432s4.224-16.864 16.864-8.416c12.64 8.416 33.696 33.696 50.56 71.648 12.64 37.92 21.056 88.48 12.64 96.928zM897.568 117.216v0c-434.048-202.272-703.744-33.696-876.512 67.424-12.64 8.416-29.504 0-12.64-21.056 59.008-67.424 244.416-231.776 493.024-231.776 244.416 0 391.904 130.624 412.96 151.712 12.64 29.504 0 42.144-16.864 33.696zM602.592 665.024c-80.064-8.416-185.408-12.64-261.28-46.368-88.48-37.92-147.488-113.792-147.488-223.328 0-139.072 92.704-210.688 206.496-210.688 101.152 0 151.712 21.056 227.552 96.928 25.28-33.696 33.696-54.784 80.064-88.48 8.416-4.224 25.28-4.224 33.696 4.224v0c29.504 25.28 80.064 67.424 105.344 88.48 12.64 8.416 8.416 25.28 0 37.92-25.28 33.696-50.56 63.2-50.56 126.432v210.688c0 88.48 8.416 172.768-63.2 231.776-54.784 50.56-143.264 67.424-210.688 67.424-126.432 0-273.92-46.368-307.616-206.496 0-16.864 12.64-25.28 21.056-29.504l134.848-12.64c12.64 0 21.056 12.64 25.28 25.28 12.64 54.784 59.008 80.064 113.792 80.064 29.504 0 63.2-8.416 80.064-33.728 21.056-29.504 16.864-67.424 16.864-96.928l-4.224-21.056zM577.312 382.688c-21.056-37.92-59.008-63.2-96.928-63.2-54.784 0-84.288 37.92-84.288 96.928 0 113.792 105.344 134.848 206.496 134.848v-29.504c0-46.368 4.224-92.704-25.28-139.072z" />
<glyph unicode="&#xe947;" glyph-name="ens" horiz-adv-x="928" d="M800.096 350.272c-10.112 21.632-35.168 64.384-35.168 64.384l-289.568-478.656 282.592 197.216c16.832 11.328 30.4 26.208 39.904 43.616l0.32 0.64c12.672 25.856 20.064 56.288 20.064 88.448 0 30.56-6.688 59.584-18.72 85.632l0.512-1.28zM914.816 507.904c-6.88 95.776-54.624 179.136-125.728 233.568l-0.768 0.576-312.576 217.952s195.424-281.824 360.512-562.272c15.808-27.584 27.36-59.776 32.8-94.016l0.224-1.6c1.088-6.912 1.728-14.848 1.728-22.944s-0.64-16.064-1.856-23.808l0.096 0.864c4.288 7.968 12.64 24.288 12.64 24.288 15.744 31.36 27.552 67.744 33.504 106.080l0.256 2.080c1.44 16.384 2.272 35.488 2.272 54.752 0 22.72-1.152 45.184-3.392 67.328l0.224-2.784zM119.296 718.4c9.824 18.080 23.424 32.96 39.776 44l0.448 0.288 282.592 197.344-289.568-478.784s-25.312 42.752-35.168 64.384c-11.488 24.768-18.176 53.792-18.176 84.352 0 32.16 7.424 62.56 20.608 89.664l-0.544-1.216zM2.656 388.096c6.88-95.776 54.624-179.136 125.728-233.568l0.768-0.576 312.576-217.952s-195.552 281.824-360.512 562.272c-15.84 27.584-27.456 59.776-32.928 94.016l-0.224 1.6c-1.088 6.912-1.728 14.848-1.728 22.944s0.64 16.064 1.856 23.808l-0.096-0.864c-4.288-7.968-12.64-24.288-12.64-24.288-15.744-31.36-27.552-67.744-33.504-106.080l-0.256-2.080c-1.408-16.192-2.208-35.040-2.208-54.048 0-22.976 1.184-45.664 3.456-68.032l-0.224 2.816zM799.584 350.144c-10.112 21.632-35.168 64.384-35.168 64.384l-289.056-478.528 282.592 197.216c16.832 11.328 30.4 26.208 39.904 43.616l0.32 0.64c12.672 25.856 20.064 56.288 20.064 88.448 0 30.56-6.688 59.584-18.72 85.632l0.512-1.28zM914.336 507.776c-6.88 95.776-54.624 179.136-125.728 233.568l-0.768 0.576-312.064 218.080s195.424-281.824 360.512-562.272c15.808-27.584 27.36-59.776 32.8-94.016l0.224-1.6c1.088-6.912 1.728-14.848 1.728-22.944s-0.64-16.064-1.856-23.808l0.096 0.864c4.288 7.968 12.64 24.288 12.64 24.288 15.744 31.36 27.552 67.744 33.504 106.080l0.256 2.080c1.44 16.384 2.272 35.488 2.272 54.752 0 22.72-1.152 45.184-3.392 67.328l0.224-2.784z" />
<glyph unicode="&#xe948;" glyph-name="youtube-alt" horiz-adv-x="1504" d="M1473.568 801.824v0c-16.64 62.432-66.592 112.384-133.216 129.056-116.544 29.152-586.912 29.152-586.912 29.152s-470.368 0-586.912-29.152c-66.592-16.64-116.544-66.592-133.216-129.056-33.312-116.544-33.312-353.824-33.312-353.824s0-237.28 33.312-349.664c16.64-62.432 66.592-112.384 133.216-129.056 116.544-29.152 586.912-29.152 586.912-29.152s470.368 0 586.912 29.152c66.592 16.64 116.544 66.592 133.216 129.056 33.312 112.384 33.312 349.664 33.312 349.664s0 237.28-33.312 353.824zM599.424 231.552v432.896l395.456-216.448-395.456-216.448z" />
<glyph unicode="&#xe949;" glyph-name="arrow-right-2" horiz-adv-x="2124" d="M1681.454 944.599c-18.148 20.534-48.352 20.534-67.136 0-18.148-19.84-18.148-52.86 0-72.654l340.423-372.15h-1884.592c-26.186-0.046-47-22.797-47-51.424 0-28.63 20.814-52.122 47-52.122h1884.592l-340.423-371.458c-18.148-20.533-18.148-53.597 0-73.39 18.785-20.537 49.031-20.537 67.136 0l421.016 460.246c18.781 19.843 18.781 52.861 0 72.655l-421.016 460.297z" />
<glyph unicode="&#xe94a;" glyph-name="speaker" horiz-adv-x="1073" d="M1033.752 960c-19.505 0-39.010-19.505-39.010-39.010v-892.343c0-19.505 14.629-39.010 39.010-39.010 19.505 0 39.010 19.505 39.010 39.010v892.343c0 19.505-14.629 39.010-39.010 39.010zM0 477.257c0-68.267 48.762-121.905 112.152-131.657 0-4.876 0-9.752 0-14.629v-82.895c0-9.752 0-19.505 0-29.257 0-4.876 0-9.752 0-14.629s0-14.629 0-19.505v0c0-4.876 0-9.752 0-14.629s0-9.752 0-14.629v0c0-4.876 0-9.752 0-14.629 4.876-19.505 9.752-39.010 14.629-58.514 0 0 0 0 0 0 4.876-9.752 4.876-19.505 9.752-29.257 0 0 0 0 0 0v0c4.876-9.752 4.876-14.629 9.752-24.381 0 0 0 0 0 0l14.629-24.381c0 0 0 0 0-4.876l14.629-24.381c4.876-4.876 9.752-9.752 9.752-14.629 19.505-19.505 29.257-24.381 39.010-24.381 4.876 0 9.752 0 14.629 4.876l131.657 58.514c14.629 4.876 24.381 19.505 19.505 34.133 0 14.629-9.752 29.257-24.381 29.257l-9.752 4.876c0 0-4.876 0-4.876 0l-9.752 4.876c0 0 0 0-4.876 0 0 0 0 0 0 0l-14.629 9.752c0 0 0 0 0 0s0 0 0 0l-4.876 4.876c-4.876 0-4.876 4.876-9.752 4.876l-9.752 9.752c0 0-4.876 4.876-4.876 4.876s-4.876 4.876-4.876 4.876c0 0 0 4.876-4.876 4.876 0 4.876-4.876 4.876-4.876 9.752v0c-4.876 9.752-14.629 24.381-14.629 34.133 0 0 0 0 0 0s0 4.876 0 4.876v0c0 4.876 0 4.876-4.876 9.752 0 0 0 0 0 0 0 4.876 0 4.876 0 9.752v4.876c0 0 0 4.876 0 4.876 0 4.876 0 9.752 0 14.629 0 9.752 0 19.505-4.876 29.257l-9.752 58.514-4.876 39.010c0 4.876 0 4.876 0 9.752h97.524v263.314h-204.8c-73.143 0-131.657-58.514-131.657-131.657v0zM370.59 594.286v-234.057c482.743-102.4 585.143-292.571 585.143-292.571v824.076c0-4.876-102.4-199.924-585.143-297.448v0z" />
<glyph unicode="&#xe94b;" glyph-name="globe" horiz-adv-x="986" d="M493.037-64c-273.067 0-493.037 231.348-493.037 512 0 284.444 219.97 512 493.037 512s493.037-231.348 493.037-512c0-284.444-219.97-512-493.037-512zM261.689 459.378h223.763v227.556c-60.681 0-125.156 0-185.837 0-3.793 0-7.585-3.793-7.585-7.585-11.378-34.133-18.963-64.474-22.756-98.607-3.793-41.719-7.585-79.644-7.585-121.363v0zM261.689 436.622c0-79.644 11.378-155.496 30.341-227.556h189.63v227.556h-219.97zM724.385 459.378c0 3.793 0 3.793 0 7.585 0 72.059-11.378 144.119-26.548 216.178-3.793 7.585-7.585 7.585-11.378 7.585-56.889 0-113.778 0-170.667 0-3.793 0-7.585 0-11.378 0v-227.556h219.97v-3.793zM694.044 209.067c18.963 75.852 30.341 151.704 30.341 227.556h-219.97v-227.556h189.63zM743.348 459.378h219.97c0 3.793 0 3.793 0 3.793-3.793 75.852-22.756 147.911-56.889 216.178-3.793 7.585-7.585 7.585-15.17 7.585-56.889 0-109.985 0-166.874 0-3.793 0-7.585 0-15.17 0 26.548-75.852 34.133-151.704 34.133-227.556zM716.8 209.067c3.793 0 3.793 0 7.585 0 56.889 0 117.57 0 174.459 0 3.793 0 11.378 3.793 11.378 7.585 26.548 53.096 45.511 106.193 53.096 163.081 3.793 18.963 3.793 37.926 3.793 56.889h-219.97c-3.793-75.852-11.378-151.704-30.341-227.556zM22.756 436.622c0-3.793 0-3.793 0-7.585 3.793-75.852 22.756-147.911 53.096-212.385 3.793-7.585 7.585-11.378 15.17-11.378 56.889 0 109.985 0 166.874 0 3.793 0 7.585 0 11.378 0-18.963 75.852-26.548 151.704-30.341 227.556h-216.178zM269.274 686.933c-3.793 0-3.793 0-7.585 0-56.889 0-117.57 0-174.459 0-3.793 0-7.585-3.793-11.378-7.585-26.548-53.096-45.511-106.193-53.096-163.081-3.793-18.963-3.793-37.926-3.793-56.889h219.97c3.793 75.852 11.378 151.704 30.341 227.556zM481.659 709.689v227.556c-22.756 0-41.719-7.585-56.889-18.963-68.267-49.304-102.4-128.948-128.948-208.593h185.837zM690.252 709.689c-15.17 49.304-34.133 91.022-56.889 132.741-18.963 30.341-41.719 56.889-72.059 75.852-15.17 11.378-34.133 18.963-53.096 18.963v-227.556h182.044zM481.659-45.037v231.348h-185.837c15.17-53.096 37.926-106.193 72.059-151.704 18.963-26.548 37.926-49.304 68.267-64.474 15.17-3.793 30.341-7.585 45.511-15.17v0zM504.415 186.311v-227.556c3.793 0 11.378 0 15.17 3.793 22.756 3.793 41.719 15.17 60.681 30.341 56.889 53.096 87.23 121.363 109.985 193.422h-185.837zM891.259 709.689c-45.511 98.607-223.763 223.763-310.993 219.97 7.585-7.585 18.963-18.963 26.548-26.548 41.719-41.719 64.474-94.815 87.23-151.704 3.793-15.17 7.585-34.133 15.17-37.926 11.378-7.585 26.548-3.793 41.719-3.793 49.304 0 94.815 0 140.326 0v0zM895.052 186.311h-15.17c-53.096 0-106.193 0-155.496 0-11.378 0-15.17-3.793-15.17-11.378-15.17-53.096-37.926-102.4-68.267-144.119-15.17-22.756-37.926-41.719-53.096-64.474 125.156 26.548 227.556 102.4 307.2 219.97zM405.807 929.659c-132.741-26.548-235.141-102.4-314.785-219.97h15.17c41.719 0 87.23 0 132.741 0 11.378 0 26.548-3.793 34.133 3.793 11.378 3.793 11.378 18.963 15.17 30.341 22.756 64.474 49.304 121.363 98.607 166.874 3.793 7.585 11.378 11.378 18.963 18.963v0zM398.222-33.659c-7.585 11.378-22.756 26.548-34.133 41.719-41.719 49.304-64.474 106.193-83.437 166.874-3.793 7.585-7.585 11.378-15.17 11.378-53.096 0-106.193 0-159.289 0-3.793 0-7.585 0-11.378 0 75.852-117.57 178.252-193.422 303.407-219.97z" />
<glyph unicode="&#xe94c;" glyph-name="instagram" d="M512 717.937c-148.905 0-269.937-121.032-269.937-269.937s121.032-269.692 269.692-269.692 269.692 121.032 269.692 269.692c0.245 148.905-120.787 269.937-269.448 269.937zM725.945 960h-427.889c-164.309 0-298.055-133.746-298.055-298.055v-427.889c0-164.309 133.746-298.055 298.055-298.055h427.889c164.309 0 298.055 133.746 298.055 298.055v427.889c0 164.309-133.746 298.055-298.055 298.055zM873.383 448c0-199.274-162.109-361.383-361.383-361.383s-361.628 162.109-361.628 361.383c0 199.274 162.109 361.383 361.383 361.383 74.575 0 144.015-22.739 201.719-61.616-0.978 5.135-1.467 10.269-1.467 15.649 0 44.5 36.187 80.688 80.688 80.688s80.688-36.187 80.688-80.688c0-44.5-36.187-80.688-80.688-80.688-2.445 0-4.89 0.489-7.335 0.734 54.77-63.083 88.023-145.238 88.023-235.461v0z" />
<glyph unicode="&#xe94d;" glyph-name="double-arrow" horiz-adv-x="975" d="M615.902-27.858h-202.569l330.861 486.166-330.861 486.161h202.569l330.859-486.161-330.859-486.166zM203.997-27.858h-202.568l330.861 486.166-330.861 486.161h202.568l330.863-486.161-330.863-486.166z" />
<glyph unicode="&#xe94e;" glyph-name="mute" horiz-adv-x="1219" d="M605.746 945.577l-346.141-302.873h-194.704c-36.056 0-64.901-28.845-64.901-57.69v-274.028c0-36.056 28.845-64.901 64.901-64.901h194.704l346.141-295.662c28.845-28.845 72.113-7.211 72.113 36.056v930.254c0 36.056-43.268 57.69-72.113 28.845v0zM836.507 238.873c-7.211 0-21.634 7.211-28.845 14.423-14.423 14.423-14.423 36.056 0 57.69l338.93 338.93c14.423 14.423 36.056 14.423 57.69 0s14.423-36.056 0-57.69l-338.93-338.93c-7.211-14.423-21.634-14.423-28.845-14.423zM1175.437 238.873c-7.211 0-21.634 7.211-28.845 14.423l-338.93 338.93c-14.423 14.423-14.423 36.056 0 57.69s36.056 14.423 57.69 0l338.93-338.93c14.423-14.423 14.423-36.056 0-57.69-7.211-14.423-14.423-14.423-28.845-14.423z" />
<glyph unicode="&#xe94f;" glyph-name="quote-a" horiz-adv-x="914" d="M699.418-51.196h-296.603l241.371 1005.714h256.375l-201.143-1005.714zM11.5-51.196h296.603l201.143 1005.714h-256.375l-241.371-1005.714zM844.798 908.804h-164.571l-219.429-914.286h201.143l182.857 914.286zM270.627-5.482h-201.143l219.429 914.286h164.571l-182.857-914.286z" />
<glyph unicode="&#xe950;" glyph-name="unmute" horiz-adv-x="1219" d="M605.746 945.577l-346.141-302.873h-194.704c-36.056 0-64.901-28.845-64.901-57.69v-274.028c0-36.056 28.845-64.901 64.901-64.901h194.704l346.141-295.662c28.845-28.845 72.113-7.211 72.113 36.056v930.254c0 36.056-43.268 57.69-72.113 28.845v0zM894.197 772.507v-100.958c72.113-7.211 151.437-86.535 151.437-223.549s-79.324-209.127-151.437-223.549v-100.958c144.225 7.211 252.394 151.437 252.394 324.507s-115.38 317.296-252.394 324.507v0zM973.521 448c0 100.958-72.113 180.282-173.070 187.493v-100.958c36.056 0 64.901-36.056 64.901-86.535s-36.056-79.324-64.901-86.535v-100.958c100.958 0 173.070 86.535 173.070 187.493v0z" />
<glyph unicode="&#xe951;" glyph-name="tiktok" horiz-adv-x="876" d="M634.787 960c18.534-143.638 97.303-231.674 236.308-240.941v-162.172c-83.403-9.267-152.905 18.534-236.308 69.502v-305.81c0-389.213-421.647-509.683-593.086-231.674-101.937 176.072-37.068 491.149 315.077 505.050v-171.439c-27.801-4.633-55.602-9.267-83.403-18.534-78.769-27.801-120.471-74.136-111.204-162.172 23.167-166.805 328.977-217.774 305.81 111.204v606.986h166.805z" />
<glyph unicode="&#xe952;" glyph-name="plus-2" d="M969.267 365.716h-409.875v-403.684h-147.185v403.684h-409.874v144.963h409.874v403.683h147.185v-403.683h409.875v-144.963z" />
<glyph unicode="&#xe953;" glyph-name="play-b" d="M445.44 299.52l245.76 163.84-245.76 153.6zM512 960c-281.6 0-512-230.4-512-512s230.4-512 512-512c281.6 0 512 230.4 512 512s-230.4 512-512 512zM732.16 448l-302.080-204.8-15.36 5.12c-5.12 5.12-10.24 10.24-10.24 20.48v389.12l10.24 10.24c5.12 5.12 15.36 5.12 20.48 0l302.080-184.32v-25.6l-5.12-10.24z" />
<glyph unicode="&#xe954;" glyph-name="caret-up" d="M512 704l-389.12-512h768l-378.88 512z" />
<glyph unicode="&#xe955;" glyph-name="caret-down" d="M901.12 704h-778.24l389.12-512 389.12 512z" />
<glyph unicode="&#xe956;" glyph-name="facebook-a" horiz-adv-x="535" d="M504.471 402.824l22.588 180.706h-180.706v112.941c0 52.706 15.059 90.353 90.353 90.353h97.882v165.647c-22.588 0-75.294 7.529-143.059 7.529-135.529 0-233.412-82.824-233.412-240.941v-135.529h-158.118v-180.706h158.118v-466.824h180.706v466.824h165.647z" />
<glyph unicode="&#xe957;" glyph-name="arrow-b" horiz-adv-x="1856" d="M1820.448 546.592c-22.752 41.728-49.312 79.648-83.424 113.792s-68.256 64.48-109.984 91.008c-37.92 26.56-79.648 56.896-117.568 83.424-49.312 15.168-102.4 34.144-155.488 56.896-53.088 26.56-106.208 49.312-163.072 64.48-7.584-15.168-11.392-26.56-15.168-41.728 0-15.168-7.584-30.336-15.168-49.312 3.808-22.752 11.392-37.92 15.168-53.088s7.584-34.144 7.584-49.312c-7.584 0-15.168 0-18.976 0-7.584 0-7.584-3.808-7.584-11.392 0-3.808 0-7.584 0-15.168s-3.808-11.392-3.808-22.752c11.392-45.504 22.752-94.816 26.56-144.128-11.392 0-22.752-3.808-34.144-3.808s-22.752-3.808-34.144-3.808c-7.584-7.584-15.168-11.392-26.56-15.168s-18.976-3.808-34.144-7.584c0 0-3.808 0-3.808 0-37.92-3.808-72.064 0-98.592 3.808-83.424-11.392-178.24-18.976-273.056-26.56-98.592-7.584-193.408-15.168-280.64-22.752-18.976-11.392-45.504-15.168-75.84-22.752-26.56-7.584-60.672-11.392-91.008-15.168-34.144-3.808-68.256-7.584-98.592-11.392-34.144-3.808-64.48-11.392-91.008-18.976 3.808-7.584 3.808-15.168 0-26.56s-15.168-22.752-30.336-22.752c18.976-7.584 30.336-18.976 34.144-37.92s3.808-30.336 0-41.728c11.392-15.168 26.56-26.56 34.144-37.92s22.752-26.56 34.144-34.144c11.392-11.392 30.336-18.976 53.088-22.752 18.976-3.808 49.312-7.584 83.424-3.808 18.976 7.584 56.896 18.976 109.984 26.56 53.088 11.392 128.96 22.752 223.776 37.92 30.336 3.808 72.064 7.584 117.568 11.392s98.592 7.584 155.488 15.168c56.896 3.808 113.792 11.392 174.464 15.168 41.728 3.808 87.232 11.392 128.96 15.168-3.808-11.392-3.808-22.752-7.584-34.144-3.808-22.752-11.392-41.728-18.976-60.672 0-15.168 0-26.56-7.584-34.144-3.808-7.584-11.392-18.976-11.392-30.336 0-26.56 3.808-53.088 7.584-75.84 0-26.56 7.584-45.504 11.392-68.256s15.168-37.92 30.336-53.088c11.392-15.168 34.144-26.56 56.896-34.144 56.896 30.336 121.376 53.088 182.048 79.648s121.376 53.088 178.24 83.424c56.896 30.336 109.984 64.48 159.296 102.4s87.232 87.232 121.376 144.128c0 7.584 0 15.168 0 18.976s0 7.584 0 11.392c0 3.808 0 7.584 0 11.392s0 7.584 3.808 15.168c-7.584 60.672-18.976 109.984-41.728 151.712zM1657.376 413.856c-15.168-15.168-30.336-30.336-49.312-41.728-18.976-15.168-37.92-22.752-60.672-34.144-18.976-11.392-41.728-18.976-64.48-30.336-3.808-3.808-7.584-11.392-15.168-15.168-3.808-3.808-11.392-11.392-11.392-18.976-11.392 0-22.752-3.808-34.144-7.584-7.584-3.808-18.976-7.584-26.56-11.392s-18.976-7.584-26.56-11.392c-7.584-3.808-18.976-7.584-30.336-7.584 7.584 45.504 15.168 83.424 18.976 121.376 34.144 11.392 64.48 18.976 91.008 30.336 3.808 3.808 7.584 3.808 11.392 7.584 0 0 0 3.808 3.808 3.808 11.392 7.584 22.752 15.168 30.336 26.56 0 11.392 0 18.976 0 30.336s0 18.976 0 26.56c0 7.584-3.808 15.168-7.584 18.976-3.808 7.584-11.392 11.392-18.976 11.392-3.808 18.976-7.584 30.336-15.168 41.728s-15.168 15.168-26.56 18.976c-7.584 3.808-18.976 7.584-34.144 7.584-11.392 0-22.752 3.808-34.144 3.808-3.808 37.92-11.392 75.84-22.752 121.376 3.808 3.808 7.584 7.584 15.168 7.584 7.584-11.392 22.752-15.168 41.728-22.752s37.92-15.168 60.672-26.56c15.168 0 26.56-3.808 37.92-11.392s18.976-11.392 30.336-18.976c7.584-7.584 18.976-11.392 30.336-18.976s22.752-11.392 37.92-11.392c3.808-15.168 15.168-26.56 22.752-37.92s18.976-22.752 30.336-30.336c11.392-11.392 18.976-18.976 30.336-30.336 7.584-11.392 18.976-22.752 26.56-34.144-15.168-22.752-26.56-41.728-41.728-56.896z" />
<glyph unicode="&#xe958;" glyph-name="tick-2" horiz-adv-x="1344" d="M1338.016 850.784l-901.12-914.784-436.896 450.56 109.216 109.216 327.68-327.68 791.904 791.904 109.216-109.216z" />
<glyph unicode="&#xe959;" glyph-name="chevron-left" d="M828.384 839.264l-120.736 120.736-512-512 512-512 120.736 120.736-391.264 391.264z" />
<glyph unicode="&#xe95a;" glyph-name="chevron-right" d="M316.384 960l-120.736-120.736 391.264-391.264-391.264-391.264 120.736-120.736 512 512z" />
<glyph unicode="&#xe95b;" glyph-name="arrow-up-right" horiz-adv-x="1097" d="M399.433 960c-29.050 0-50.837-14.525-50.837-43.574s21.787-50.837 50.837-58.099l522.894-65.362-907.801-762.553c-21.787-14.525-21.787-50.837 0-72.624s50.837-29.050 72.624-7.262l900.539 755.291-21.787-522.894c0-29.050 21.787-58.099 50.837-58.099 29.050-7.262 50.837 14.525 50.837 43.574l29.050 653.617c0 29.050-21.787 58.099-50.837 58.099l-646.355 79.887z" />
<glyph unicode="&#xe95c;" glyph-name="github" horiz-adv-x="1045" d="M521.109 960c-288.16 0-521.109-234.667-521.109-524.981 0-232.064 149.259-428.501 356.32-498.027 25.888-5.227 35.371 11.296 35.371 25.195 0 12.171-0.853 53.888-0.853 97.355-144.96-31.296-175.147 62.581-175.147 62.581-23.296 60.843-57.813 76.48-57.813 76.48-47.445 32.16 3.456 32.16 3.456 32.16 52.629-3.477 80.245-53.888 80.245-53.888 46.581-79.957 121.643-57.365 151.84-43.456 4.309 33.899 18.123 57.365 32.789 70.4-115.616 12.171-237.259 57.365-237.259 259.019 0 57.365 20.693 104.299 53.483 140.8-5.173 13.035-23.296 66.933 5.184 139.072 0 0 44 13.909 143.211-53.888 39.057 10.99 83.918 17.333 130.252 17.387h0.031c44 0 88.853-6.091 130.272-17.387 99.221 67.797 143.221 53.888 143.221 53.888 28.48-72.139 10.347-126.037 5.173-139.072 33.653-36.501 53.493-83.435 53.493-140.8 0-201.653-121.643-245.973-238.123-259.019 18.987-16.512 35.371-47.797 35.371-97.344 0-70.4-0.853-126.901-0.853-144.277 0-13.909 9.493-30.432 35.371-25.216 207.061 69.547 356.32 265.973 356.32 498.037 0.853 290.315-232.949 524.981-520.245 524.981z" />
<glyph unicode="&#xe95d;" glyph-name="farcaster" horiz-adv-x="1152" d="M217.6 947.2h704v-998.4h-102.4v454.4c-12.8 128-121.6 230.4-249.6 230.4s-236.8-102.4-249.6-230.4v-454.4h-102.4zM326.4 89.6c19.2 0 32-12.8 32-32v-38.4h6.4c19.2 0 32-12.8 32-32v-38.4h-76.8v140.8zM38.4-51.2v38.4c0 19.2 12.8 32 32 32h6.4v38.4c0 19.2 12.8 32 32 32v576h-32l-44.8 140.8h185.6v-857.6zM1120 806.4l-44.8-140.8h-32v-576c19.2 0 32-12.8 32-32v-38.4h6.4c19.2 0 32-12.8 32-32v-38.4h-192v857.6zM755.2-51.2v38.4c0 19.2 12.8 32 32 32h6.4v38.4c0 19.2 12.8 32 25.6 32v-140.8z" />
<glyph unicode="&#xe95e;" glyph-name="clip" d="M547.115 917.333l126.891-213.419h-238.080l-113.067 212.096c8.789 0.555 17.877 0.939 27.392 1.152l14.549 0.171zM646.4 917.333h12.715c130.56 0 190.635-32.171 240.64-80.512 32.35-32.181 56.151-72.926 67.715-118.549l0.381-1.771 2.987-12.587h-197.504l-126.933 213.419zM233.941 901.248l105.259-197.333h-286.123c18.18 90.695 82.22 163.058 166.397 192.729l1.795 0.551zM649.301 353.664l-193.92 111.957c-5.566 3.272-12.26 5.204-19.406 5.204-19.629 0-35.852-14.582-38.428-33.505l-0.022-0.201-0.341-5.12v-223.915c0.050-21.405 17.414-38.739 38.827-38.739 5.308 0 10.368 1.065 14.976 2.994l-0.256-0.095 4.651 2.261 193.92 111.957c11.666 6.833 19.376 19.305 19.376 33.579 0 12.466-5.882 23.559-15.021 30.654l-0.088 0.066-4.267 2.901-193.92 111.957zM43.435 618.581h937.131l0.64-15.36 0.128-8.064v-294.357c0-130.603-32.213-190.677-80.555-240.64-49.109-47.531-106.667-79.189-227.413-81.451l-14.251-0.128h-294.272c-130.56 0-190.592 32.213-240.64 80.597-47.531 49.067-79.104 106.581-81.408 227.413l-0.128 14.208v294.357l0.128 8.064z" />
<glyph unicode="&#xe95f;" glyph-name="carousel" d="M742.4 326.4v398.933c0 61.867-49.067 110.933-110.933 110.933h-396.8c-61.867 0-110.933-49.067-110.933-110.933v-398.933c0-61.867 49.067-110.933 110.933-110.933h398.933c59.733 2.133 108.8 51.2 108.8 110.933zM836.267 640v-343.467c0-96-78.933-174.933-174.933-174.933h-343.467c-12.8 0-19.2-14.933-10.667-23.467 21.333-23.467 51.2-38.4 87.467-38.4h285.867c121.6 0 219.733 98.133 219.733 219.733v285.867c0 34.133-14.933 66.133-38.4 87.467-10.667 8.533-25.6 0-25.6-12.8z" />
<glyph unicode="&#xe960;" glyph-name="arrow-left" horiz-adv-x="1344" d="M438.422 946.068c20.898 20.898 48.762 20.898 69.66 0s20.898-55.728 0-69.66l-341.333-369.197h1128.49c27.864-6.966 48.762-27.864 48.762-55.728s-20.898-48.762-48.762-48.762h-1128.49l341.333-376.163c20.898-20.898 20.898-55.728 0-76.626s-48.762-20.898-69.66 0l-417.959 459.755c-20.898 20.898-20.898 55.728 0 69.66l417.959 466.721z" />
<glyph unicode="&#xe961;" glyph-name="apple" horiz-adv-x="835" d="M614.4 960c2.432 0 4.736 0 7.296 0 5.888-72.192-21.76-126.208-55.168-165.248-32.896-38.784-77.824-76.416-150.656-70.784-4.864 71.168 22.784 121.088 56.192 160.128 30.976 36.352 87.936 68.736 142.336 75.904zM834.816 208.384c0-0.768 0-1.408 0-2.048-20.48-61.952-49.664-115.072-85.248-164.352-32.512-44.8-72.32-104.96-143.488-104.96-61.44 0-102.272 39.552-165.248 40.576-66.688 1.024-103.296-33.024-164.224-41.6-6.912 0-13.952 0-20.736 0-44.8 6.528-80.896 41.856-107.136 73.856-77.696 94.336-137.6 216.192-148.736 372.096 0 15.232 0 30.592 0 45.824 4.736 111.616 59.008 202.368 131.072 246.272 38.016 23.424 90.368 43.264 148.608 34.432 24.96-3.84 50.432-12.416 72.832-20.864 21.12-8.192 47.616-22.528 72.704-21.76 17.024 0.512 33.92 9.344 51.072 15.616 50.176 18.176 99.328 38.912 164.224 29.184 77.952-11.776 133.248-46.464 167.424-99.84-65.92-41.984-118.016-105.216-109.184-213.12 7.808-98.176 64.896-155.52 136.064-189.312z" />
<glyph unicode="&#xe962;" glyph-name="jiosaavn" d="M512 960c-283.106 0-512-228.894-512-512s228.894-512 512-512c283.106 0 512 228.894 512 512s-228.894 512-512 512zM439.718 140.8c-6.024-6.024-12.047-6.024-24.094-6.024-66.259 24.094-126.494 60.235-168.659 120.471-6.024 6.024-6.024 12.047-6.024 18.071s6.024 6.024 12.047 6.024c18.071-6.024 36.141-12.047 54.212-18.071 48.188-24.094 90.353-54.212 120.471-102.4 18.071 0 18.071-6.024 12.047-18.071zM789.082 279.341c-18.071-24.094-30.118-48.188-54.212-66.259-54.212-48.188-114.447-78.306-192.753-84.329 0 0-6.024 0-6.024 0-6.024 0-12.047 0-12.047 6.024-6.024 6.024 0 12.047 0 18.071 18.071 24.094 36.141 42.165 60.235 60.235 54.212 42.165 114.447 78.306 186.729 90.353 0 0 6.024 0 6.024 0 6.024 0 12.047 0 18.071-6.024-6.024-6.024-6.024-12.047-6.024-18.071v0zM807.153 526.306v0c-156.612-72.282-259.012-192.753-301.176-361.412 0 0 0 0 0-6.024-6.024-30.118-6.024-24.094-36.141-24.094-12.047 0-12.047 6.024-18.071 18.071 0 72.282-18.071 138.541-48.188 198.776-42.165 84.329-102.4 150.588-180.706 198.776-6.024 12.047-6.024 12.047 0 30.118 18.071 48.188 54.212 84.329 90.353 120.471 12.047 12.047 18.071 6.024 30.118-6.024 66.259-120.471 108.424-252.988 126.494-391.529 6.024-24.094 6.024-48.188 6.024-72.282 0-6.024 0-18.071 12.047-18.071 6.024 0 12.047 6.024 12.047 12.047 30.118 78.306 48.188 156.612 60.235 240.941 6.024 42.165 6.024 78.306 6.024 120.471 0 48.188-6.024 102.4-12.047 150.588 0 0 0 6.024 0 6.024 0 12.047 6.024 18.071 18.071 18.071 36.141-6.024 66.259-18.071 96.376-36.141 72.282-42.165 120.471-102.4 144.565-180.706 12.047-12.047 6.024-18.071-6.024-18.071z" />
<glyph unicode="&#xe963;" glyph-name="pandora" d="M1024 768c0 19.2-6.4 38.4-12.8 57.6-12.8 25.6-25.6 51.2-44.8 70.4s-38.4 32-64 44.8c-25.6 12.8-57.6 19.2-83.2 19.2-204.8 0-403.2 0-608 0-6.4 0-12.8 0-12.8 0-25.6 0-44.8-6.4-57.6-12.8-32-12.8-51.2-25.6-76.8-44.8-19.2-19.2-32-38.4-44.8-64s-19.2-57.6-19.2-83.2c0-102.4 0-204.8 0-307.2s0-198.4 0-300.8c0-6.4 0-12.8 0-19.2 0-19.2 6.4-38.4 12.8-57.6 12.8-25.6 25.6-51.2 44.8-70.4s38.4-38.4 64-44.8c32-12.8 57.6-19.2 83.2-19.2 198.4 0 403.2 0 601.6 0 6.4 0 12.8 0 19.2 0 19.2 0 38.4 6.4 57.6 12.8 25.6 12.8 51.2 25.6 76.8 44.8 19.2 19.2 32 38.4 44.8 64s19.2 57.6 19.2 83.2c0 198.4 0 396.8 0 601.6v0c0 6.4 0 12.8 0 25.6zM800 480v0c0 0 0 0 0 0-6.4-19.2-6.4-38.4-19.2-57.6-6.4-19.2-25.6-44.8-38.4-57.6 0 0 0-6.4-6.4-6.4-6.4-12.8-19.2-19.2-32-25.6-12.8-12.8-32-19.2-44.8-25.6-6.4 0-12.8-6.4-19.2-6.4-12.8-6.4-25.6-6.4-38.4-12.8-38.4-6.4-76.8-6.4-115.2-6.4-6.4 0-6.4 0-6.4-6.4s0-19.2 0-25.6c0-25.6 0-57.6 0-83.2 0-19.2-12.8-25.6-25.6-25.6-51.2 0-108.8 0-160 0 0 0 0 0-6.4 0 0 0 0 6.4 0 6.4 0 96 0 198.4 0 294.4 0 0 0 0 0 0 0 102.4 0 204.8 0 313.6 0 0 0 0 0 6.4 0 0 0 0 0 0s0 0 6.4 0c19.2 0 38.4 0 57.6 0 0 0 6.4 0 6.4 0 57.6 0 108.8 0 166.4 0 0 0 6.4 0 6.4 0 44.8 0 96 0 140.8-12.8 32-25.6 70.4-44.8 96-89.6 19.2-25.6 25.6-57.6 32-89.6 6.4-25.6 6.4-57.6 0-89.6z" />
<glyph unicode="&#xe964;" glyph-name="audacy" horiz-adv-x="1031" d="M936.229 960h-841.143c-51.2 0-95.086-43.886-95.086-95.086v-833.829c0-58.514 43.886-95.086 95.086-95.086h841.143c51.2 0 95.086 43.886 95.086 95.086v833.829c0 51.2-43.886 95.086-95.086 95.086zM314.514 148.114c-102.4 0-190.171 80.457-190.171 182.857s87.771 190.171 190.171 190.171c102.4 0 190.171-80.457 190.171-182.857s-87.771-190.171-190.171-190.171zM665.6 148.114l-336.457 629.029h263.314l336.457-629.029h-263.314z" />
<glyph unicode="&#xe965;" glyph-name="threads" horiz-adv-x="899" d="M457.421-64h-0.307c-152.781 1.024-270.234 51.405-349.184 149.709-70.144 87.552-106.394 209.306-107.622 361.882v0.717c1.229 152.678 37.478 274.33 107.725 361.882 78.848 98.406 196.403 148.787 349.082 149.811h0.614c117.146-0.819 215.142-30.925 291.226-89.498 71.578-55.091 121.958-133.53 149.709-233.267l-87.040-24.269c-47.104 168.96-166.298 255.283-354.304 256.614-124.109-0.922-218.010-39.936-279.040-115.917-57.037-71.168-86.528-173.978-87.654-305.664 1.126-131.686 30.618-234.496 87.757-305.664 61.030-76.083 154.931-115.098 279.040-115.917 111.923 0.819 185.958 26.931 247.501 87.245 70.246 68.813 69.018 153.293 46.49 204.698-13.21 30.31-37.274 55.501-69.734 74.65-8.192-57.651-26.522-104.346-54.784-139.571-37.786-47.002-91.341-72.704-159.13-76.39-51.302-2.765-100.762 9.318-139.059 34.202-45.363 29.389-71.885 74.24-74.752 126.464-2.765 50.79 17.408 97.485 56.73 131.482 37.581 32.461 90.419 51.507 152.883 55.091 45.978 2.56 89.088 0.512 128.819-6.042-5.325 31.642-15.974 56.832-31.949 74.957-21.914 24.986-55.808 37.683-100.659 37.99-0.41 0-0.819 0-1.229 0-36.045 0-84.992-9.933-116.122-56.32l-74.957 50.278c41.779 62.054 109.568 96.256 191.078 96.256 0.614 0 1.229 0 1.843 0 136.294-0.819 217.498-84.275 225.587-229.888 4.608-1.946 9.216-3.994 13.722-6.042 63.59-29.901 110.080-75.162 134.554-130.97 33.997-77.722 37.171-204.39-66.048-305.459-78.95-77.21-174.694-112.128-310.477-113.050h-0.307zM500.224 434.79c-10.342 0-20.787-0.307-31.539-0.922-78.336-4.403-127.181-40.346-124.416-91.443 2.867-53.555 61.952-78.438 118.784-75.366 52.224 2.765 120.218 23.142 131.686 158.31-28.877 6.246-60.518 9.421-94.515 9.421z" />
<glyph unicode="&#xe966;" glyph-name="email-rounded" horiz-adv-x="1654" d="M47.606 919.983l720.396-554.788c16.561-16.561 41.403-16.561 57.962-16.561s41.403 8.281 57.962 16.561l720.396 554.788c0 0 8.281 8.281 8.281 8.281s0 8.281-8.281 8.281-16.561 8.281-24.842 8.281h-1507.036c-8.281 0-16.561 0-24.842-8.281 0 0-8.281-8.281-8.281-8.281s0 0 8.281-8.281v0zM6.203 903.422c0 8.281 8.281 8.281 16.561 0l529.947-405.74c0 0 0-8.281 8.281-8.281 0 0 0-8.281 0-8.281l-529.947-480.265c0 0-8.281 0-8.281 0s-8.281 0-8.281 0c-8.281 8.281-8.281 16.561-8.281 24.842v852.883c-8.281 8.281-8.281 16.561 0 24.842v0zM47.606-40.545c0 8.281-8.281 8.281 0 0-8.281 8.281 0 16.561 0 16.561l529.947 488.544c0 0 8.281 0 16.561 0l157.328-124.206c24.842-16.561 49.683-24.842 74.523-24.842s49.683 8.281 74.523 24.842l157.328 124.206c8.281 0 8.281 0 16.561 0l529.947-488.544c0 0 0-8.281 0-8.281s0-8.281-8.281-8.281-16.561-8.281-24.842-8.281h-1498.756c-8.281 8.281-16.561 8.281-24.842 8.281v0zM1645.727 0.856c-8.281 0-8.281-8.281 0 0-8.281 0-16.561 0-16.561 0l-529.947 480.265c0 0 0 8.281 0 8.281s0 8.281 8.281 8.281l521.666 405.74c8.281 0 8.281 0 16.561 0 8.281-8.281 8.281-16.561 8.281-24.842v-844.603c0-16.561 0-24.842-8.281-33.122v0z" />
<glyph unicode="&#xe967;" glyph-name="arrow-right-long" horiz-adv-x="2980" d="M2489.63-64l-50.957 50.957 427.071 429.498h-2865.744v72.796h2865.744l-419.791 419.791 50.957 50.957 482.882-482.882-26.692-24.265 26.692-26.692z" />
<glyph unicode="&#xe968;" glyph-name="arrow-bottom-right" d="M983.365-64h-899.386v81.27h801.862l-885.841 885.841 56.889 56.889 885.841-885.841v788.317h81.27v-885.841h-40.635z" />
<glyph unicode="&#xe969;" glyph-name="gamma" d="M676.105 417.88c-13.366-7.68-25.842-14.851-38.275-22.025-37.302-21.513-74.604-42.985-111.821-64.586-3.14-1.826-5.473-1.994-8.741-0.085-31.488 18.332-63.058 36.494-94.76 54.531-3.479 1.994-4.497 4.159-4.497 8.018 0.128 36.113 0.128 72.226 0 108.339 0 3.991 1.104 6.281 4.71 8.36 117.675 67.686 235.264 135.541 352.811 203.439 3.311 1.909 5.561 1.697 8.701-0.127 31.528-18.29 63.101-36.452 94.76-54.487 3.055-1.741 4.116-3.692 4.116-7.171-0.085-135.964-0.085-271.932 0-407.896 0-3.607-1.274-5.302-4.244-7-117.76-67.897-235.477-135.879-353.109-203.904-2.844-1.655-4.924-1.741-7.808-0.085-118.016 68.15-236.029 136.218-354.128 204.242-2.97 1.655-3.819 3.524-3.819 6.79 0.085 135.797 0.085 271.59 0 407.384 0 3.439 0.891 5.348 4.031 7.174 117.972 67.855 235.858 135.879 353.703 203.946 3.055 1.74 5.262 1.655 8.232-0.085 31.531-18.29 63.104-36.453 94.76-54.488 3.396-1.952 4.582-4.074 4.543-7.978-0.171-35.943-0.171-71.887 0-107.83 0-4.456-1.274-6.832-5.18-9.124-82.833-47.699-165.541-95.608-248.377-143.349-3.777-2.165-5.006-4.454-5.006-8.741 0.171-55.592 0.128-111.226 0-166.815 0-3.905 1.146-6.027 4.54-7.979 48.631-27.924 97.22-55.973 145.727-84.15 3.564-2.079 6.11-1.951 9.589 0.085 48.336 28.134 96.711 56.183 145.217 84.065 3.265 1.866 4.412 3.863 4.369 7.512-0.168 17.61-0.085 35.22-0.085 54.019h0.043z" />
<glyph unicode="&#xe96a;" glyph-name="speaker-1" horiz-adv-x="1293" d="M1072.23 921.809c-8.553 9.46-20.728 12.817-31.96 8.816-11.226-3.993-19.785-14.75-22.463-28.212-2.668-13.453 0.949-27.567 9.502-37.027 96.806-106.951 153.632-254.812 157.992-411.104 4.365-156.297-44.081-308.237-134.71-422.462-8.025-10.078-10.876-24.43-7.481-37.667 3.39-13.231 12.514-23.315 23.94-26.473 11.415-3.147 23.39 1.116 31.415 11.199 102.556 129.18 157.405 301.061 152.484 477.881-4.915 176.81-69.195 344.098-178.726 465.063l0.005-0.014zM968.284 795.052c-8.553 9.46-20.733 12.817-31.96 8.816-11.226-3.993-19.785-14.749-22.463-28.212-2.673-13.454 0.949-27.567 9.502-37.028 67.212-74.457 106.647-177.269 109.665-285.934 3.002-108.657-30.645-214.291-93.599-293.748-6.106-7.238-9.534-17.036-9.534-27.244s3.428-20.006 9.534-27.244c6.144-7.2 14.455-11.242 23.115-11.242 8.666 0 16.977 4.042 23.121 11.242 49.96 62.372 85.094 139.162 101.866 222.639 16.767 83.461 14.573 170.674-6.36 252.831-20.938 82.153-59.877 156.352-112.888 215.136v-0.013zM863.356 667.907c-6.209 7.817-14.891 12.254-23.978 12.237-9.087-0.008-17.758-4.468-23.956-12.302s-9.351-18.348-8.715-29.033c0.636-10.684 4.996-20.579 12.056-27.326 37.694-41.97 59.802-99.777 61.521-160.862 1.714-61.077-17.090-120.485-52.343-165.304-6.106-7.238-9.534-17.036-9.534-27.249 0-10.208 3.428-20.006 9.534-27.244 6.155-7.319 14.541-11.431 23.283-11.431s17.128 4.112 23.277 11.431c47.713 59.699 73.335 139.291 71.243 221.258-2.091 81.969-31.722 159.606-82.389 215.816v0.007zM668.262 950.025c-9.329 6.53-19.979 9.975-30.828 9.975-10.844 0-21.493-3.446-30.822-9.975l-333.476-234.18h-180.336c-24.812-0.105-48.564-11.868-65.982-32.695-17.426-20.821-27.071-48.975-26.813-78.216v-309.164c0-29.038 9.769-56.897 27.161-77.468 17.392-20.566 40.993-32.181 65.634-32.283h180.336l334.129-231.871c9.868-7.071 21.24-10.687 32.79-10.434 10.585 0.146 20.97 3.471 30.165 9.658 9.814 5.982 18.055 15.020 23.832 26.123 5.783 11.102 8.876 23.843 8.957 36.875v870.682c-0.259 13.268-3.654 26.19-9.787 37.31-6.144 11.127-14.783 20.023-24.969 25.683l0.011-0.019zM248.548 262.139h-155.751c-7.248 0.102-14.168 3.568-19.265 9.642-5.096 6.079-7.952 14.277-7.952 22.819v310.317c0 8.542 2.855 16.738 7.952 22.816s12.016 9.54 19.265 9.645h155.751v-375.239zM633.824 22.145l-319.695 223.378v409.643l319.695 223.38v-856.401z" />
<glyph unicode="&#xe96b;" glyph-name="speaker-1-mute" horiz-adv-x="1347" d="M668.295 949.221v0c-10.779 5.389-21.558 10.779-32.337 10.779s-21.558-5.389-32.337-10.779l-328.758-226.358h-183.242c-21.558 0-48.505-10.779-64.674-32.337s-26.947-48.505-26.947-75.453v-301.811c0-26.947 10.779-53.895 26.947-75.453s43.116-32.337 64.674-32.337h177.853l334.147-226.358c10.779-5.389 21.558-10.779 32.337-10.779s21.558 5.389 32.337 10.779c10.779 5.389 16.168 16.168 21.558 26.947s10.779 21.558 10.779 37.726v846.147c0 10.779-5.389 26.947-10.779 37.726s-10.779 16.168-21.558 21.558zM247.916 275.537h-156.295c-5.389 0-16.168 5.389-21.558 10.779s-5.389 16.168-5.389 21.558v307.2c0 10.779 5.389 16.168 5.389 21.558 5.389 5.389 10.779 10.779 21.558 10.779h156.295v-371.874zM635.958 43.789l-323.368 215.579v404.211l317.979 220.968v-840.758zM1126.4 431.832l194.021 188.632c10.779 10.779 10.779 32.337 0 43.116s-32.337 10.779-43.116 0l-199.411-183.242-194.021 188.632c-10.779 10.779-32.337 10.779-43.116 0s-10.779-32.337 0-43.116l194.021-188.632-194.021-188.632c-10.779-10.779-10.779-32.337 0-43.116 5.389-5.389 16.168-10.779 21.558-10.779 10.779 0 16.168 5.389 21.558 10.779l194.021 188.632 194.021-188.632c5.389-5.389 16.168-10.779 21.558-10.779 10.779 0 16.168 5.389 21.558 10.779 10.779 10.779 10.779 32.337 0 43.116l-188.632 183.242z" />
<glyph unicode="&#xe96c;" glyph-name="star" horiz-adv-x="1068" d="M238.345-64c-8.828 0-17.655 0-35.31 8.828-17.655 17.655-26.483 44.138-17.655 61.793l70.621 308.966-238.345 203.034c-17.655 17.655-17.655 35.31-17.655 61.793 8.828 17.655 26.483 26.483 52.966 35.31l317.793 26.483 123.586 291.31c17.655 35.31 79.448 35.31 97.103 0l114.759-291.31 317.793-26.483c17.655 0 35.31-17.655 44.138-35.31s0-44.138-17.655-52.966l-238.345-211.862 70.621-308.966c8.828-17.655 0-44.138-17.655-52.966s-44.138-17.655-61.793 0l-264.828 158.897-273.655-167.724c-8.828 0-17.655-8.828-26.483-8.828zM273.655-11.034v0c0 0 0 0 0 0zM220.69 24.276c0 0 0 0 0 0v0zM847.448 24.276v0c0 0 0 0 0 0zM538.483 209.655c8.828 0 17.655 0 26.483-8.828l211.862-132.414-52.966 247.172c-8.828 17.655 0 35.31 17.655 52.966l194.207 167.724-256 17.655c-17.655 0-35.31 17.655-44.138 35.31l-97.103 229.517-97.103-238.345c-8.828-17.655-26.483-26.483-44.138-26.483l-256-26.483 194.207-167.724c8.828-8.828 17.655-26.483 17.655-44.138l-61.793-247.172 211.862 132.414c8.828 0 26.483 8.828 35.31 8.828zM264.828 333.241c0 0 0 0 0 0v0zM803.31 333.241v0c0 0 0 0 0 0zM388.414 642.207c0 0 0 0 0 0v0z" />
<glyph unicode="&#xe96d;" glyph-name="a16z" horiz-adv-x="2488" d="M612.486 644.187c-57.421 47.85-133.981 66.991-210.542 76.561-66.991 0-143.551-19.14-210.542-57.421s-114.841-95.701-153.121-162.692c-28.71-66.991-47.85-143.551-38.28-220.112 9.57-66.991 28.71-133.981 76.561-191.402s95.701-95.701 153.121-124.411c57.421-28.71 133.981-38.28 200.972-28.71s133.981 28.71 181.832 76.561v-57.421h162.692v736.897h-162.692v-47.85zM612.486 328.374c0-57.421-28.71-114.841-66.991-162.692s-95.701-66.991-162.692-66.991c-57.421 0-114.841 28.71-153.121 66.991-47.85 47.85-66.991 105.271-66.991 162.692s19.14 114.841 66.991 162.692c38.28 38.28 95.701 66.991 162.692 66.991 57.421 0 114.841-19.14 162.692-66.991 28.71-38.28 57.421-105.271 57.421-162.692v0zM1531.215 682.467c-9.57 0-28.71 0-38.28 0l200.972 277.533h-191.402l-296.673-401.944c-57.421-86.131-86.131-172.262-86.131-258.393 0-47.85 9.57-95.701 28.71-143.551s47.85-86.131 86.131-114.841 162.692-105.271 258.393-105.271h9.57c210.542 9.57 373.234 172.262 363.664 382.804 0 191.402-153.121 354.093-334.953 363.664v0zM1502.505 89.121c-28.71 0-57.421 0-76.561 9.57-28.71 9.57-47.85 28.71-66.991 38.28-19.14 19.14-38.28 47.85-47.85 76.561s-19.14 57.421-19.14 86.131c0 28.71 0 57.421 9.57 86.131s28.71 57.421 47.85 76.561c19.14 19.14 38.28 38.28 66.991 47.85s47.85 19.14 76.561 19.14c0 0 9.57 0 9.57 0 47.85 0 105.271-19.14 143.551-57.421 19.14-19.14 38.28-47.85 47.85-76.561s19.14-57.421 19.14-86.131c0-114.841-86.131-220.112-210.542-220.112zM2124.561 98.692l363.664 440.224v153.121h-555.065v-153.121h354.093l-354.093-440.224v-153.121h555.065v153.121h-363.664zM775.178 806.879h105.271v-861.308h162.692v1014.43h-267.963v-153.121z" />
<glyph unicode="&#xe96e;" glyph-name="tunein" horiz-adv-x="1514" d="M1462.857 960c-111.866 0-223.731 0-335.597 0s-223.731 0-344.202 0c-43.025 0-60.235-17.21-60.235-60.235s0-86.050 0-129.076c0-34.42-8.605-43.025-43.025-43.025-129.076 0-258.151 0-387.227 0-77.445 0-154.891 0-232.336 0-34.42 0-60.235-8.605-60.235-51.63 0-232.336 0-456.067 0-688.403 0-34.42 17.21-51.63 51.63-51.63 232.336 0 464.672 0 688.403 0 34.42 0 51.63 17.21 51.63 51.63 0 43.025 0 77.445 0 120.471s17.21 60.235 60.235 60.235c197.916 0 395.832 0 593.748 0 60.235 0 68.84 8.605 68.84 60.235 0 223.731 0 447.462 0 671.193 0 43.025-17.21 60.235-51.63 60.235zM722.824 39.261c0-25.815-8.605-34.42-34.42-34.42v0c-189.311 0-387.227 0-576.538 0-25.815 0-43.025 8.605-43.025 34.42 0 189.311 0 387.227 0 576.538 0 25.815 8.605 34.42 34.42 34.42 197.916 0 387.227 0 585.143 0 34.42 0 34.42-8.605 34.42-43.025 0-94.655 0-189.311 0-283.966s0-180.706 0-283.966zM1170.286 400.672c-17.21 0-25.815 0-43.025 0s-34.42 0-51.63 0c-17.21 0-34.42-8.605-34.42 25.815 0 17.21-8.605 43.025 25.815 43.025 17.21 0 25.815 8.605 25.815 25.815 0 51.63 0 103.261 0 154.891 0 17.21 0 25.815-17.21 25.815-25.815 0-25.815 17.21-25.815 34.42 0 25.815 17.21 25.815 34.42 25.815 34.42 0 60.235 0 94.655 0 17.21 0 34.42 0 34.42-25.815 0-17.21 8.605-43.025-25.815-43.025-17.21 0-25.815-8.605-25.815-25.815 0-51.63 0-94.655 0-146.286 0-17.21 0-25.815 17.21-25.815 25.815 0 34.42-8.605 34.42-34.42 0-34.42-25.815-34.42-43.025-34.42zM464.672 495.328c-51.63 0-103.261 0-154.891 0-17.21 0-25.815-8.605-25.815-25.815s0-43.025 25.815-34.42c43.025 8.605 51.63-17.21 43.025-51.63 0-25.815 0-51.63 0-77.445 0-34.42 0-68.84 0-103.261 0-25.815 8.605-34.42 34.42-34.42s34.42 8.605 34.42 34.42c0 60.235 0 111.866 0 172.101 0 34.42 0 60.235 51.63 51.63 25.815 0 25.815 17.21 25.815 34.42-8.605 25.815-8.605 34.42-34.42 34.42z" />
</font>
</defs>
</svg>
